<svg width="16" height="16" viewBox="0 0 16 16" fill="none" xmlns="http://www.w3.org/2000/svg">
<g clip-path="url(#clip0_65_51)">
<path d="M5.01472 6.9674L5.48244 7.04204C5.7332 7.08206 5.96906 6.91111 6.00908 6.66035L6.08372 6.19264C6.12374 5.94188 5.95277 5.70616 5.70201 5.66614L5.2343 5.5915C4.98353 5.55148 4.74784 5.7223 4.70782 5.97306L4.63318 6.44078C4.5933 6.69156 4.76396 6.92738 5.01472 6.9674Z" fill="#EDB300"/>
<path d="M8.11042 7.46145L8.57843 7.53613C8.82919 7.57615 9.06491 7.40519 9.10492 7.15442L9.17957 6.68671C9.21958 6.43595 9.04876 6.20025 8.798 6.16023L8.33 6.08555C8.07924 6.04553 7.84354 6.21635 7.80352 6.46711L7.72888 6.93483C7.68901 7.18561 7.85981 7.42145 8.11042 7.46145Z" fill="#EDB300"/>
<path d="M11.2064 7.95552L11.6741 8.03016C11.9249 8.07018 12.1606 7.89921 12.2006 7.64845L12.2752 7.18074C12.3153 6.92998 12.1444 6.69428 11.8937 6.65426L11.426 6.57962C11.1752 6.5396 10.9394 6.7104 10.8993 6.96116L10.8247 7.42888C10.7848 7.67966 10.9558 7.91553 11.2064 7.95552Z" fill="#EDB300"/>
<path d="M4.64141 9.30668L5.10912 9.38132C5.35988 9.42134 5.59575 9.2504 5.63577 8.99964L5.71043 8.53178C5.75045 8.28102 5.57948 8.0453 5.32872 8.00528L4.861 7.93064C4.61024 7.89062 4.37454 8.06145 4.33453 8.31221L4.25986 8.78006C4.21999 9.03085 4.39065 9.26667 4.64141 9.30668Z" fill="#EDB300"/>
<path d="M7.73711 9.80073L8.20511 9.87542C8.45587 9.91544 8.69159 9.74447 8.73161 9.49371L8.80627 9.02585C8.84629 8.77509 8.67547 8.53939 8.42471 8.49937L7.95671 8.42469C7.70595 8.38467 7.47025 8.5555 7.43023 8.80626L7.35557 9.27411C7.31569 9.5249 7.48649 9.76074 7.73711 9.80073Z" fill="#EDB300"/>
<path d="M10.8331 10.2948L11.3008 10.3694C11.5516 10.4095 11.7873 10.2385 11.8273 9.98774L11.902 9.51988C11.942 9.26912 11.7712 9.03342 11.5204 8.9934L11.0527 8.91876C10.8019 8.87874 10.5661 9.04954 10.5261 9.3003L10.4514 9.76816C10.4115 10.0189 10.5825 10.2548 10.8331 10.2948Z" fill="#EDB300"/>
<path d="M4.26812 11.6457L4.73583 11.7203C4.98659 11.7604 5.22246 11.5894 5.26247 11.3387L5.33716 10.8707C5.37718 10.6199 5.20619 10.3843 4.95543 10.3443L4.48771 10.2697C4.23695 10.2296 4.00128 10.4003 3.96126 10.6511L3.88657 11.1191C3.8467 11.3699 4.01736 11.6057 4.26812 11.6457Z" fill="#EDB300"/>
<path d="M7.36382 12.1397L7.83182 12.2144C8.08258 12.2544 8.3183 12.0835 8.35832 11.8327L8.43301 11.3647C8.47302 11.1139 8.30218 10.8784 8.05142 10.8384L7.58342 10.7637C7.33266 10.7237 7.09698 10.8943 7.05696 11.1451L6.98228 11.6131C6.9424 11.8639 7.1132 12.0997 7.36382 12.1397Z" fill="#EDB300"/>
<path fill-rule="evenodd" clip-rule="evenodd" d="M14.0473 2.7088L4.41573 1.17174C3.53193 1.0307 2.698 1.63497 2.55693 2.51891L1.15167 11.3246C1.01061 12.2086 1.61505 13.0424 2.49884 13.1834L12.1303 14.7204C13.0142 14.8615 13.8482 14.2572 13.9892 13.3733L15.3945 4.56759C15.5356 3.68365 14.9311 2.84984 14.0473 2.7088ZM13.535 13.3008C13.4339 13.9343 12.8365 14.3676 12.2027 14.2664L2.57127 12.7294C1.93781 12.6283 1.50455 12.0307 1.60566 11.3971L2.81006 3.85001L14.7394 5.75376L13.535 13.3008ZM2.88265 3.39601L14.8119 5.29974L14.812 5.29976L14.9404 4.49499C15.0416 3.86124 14.6085 3.26364 13.9749 3.16253L4.34342 1.62549C3.70981 1.52438 3.11219 1.95763 3.01108 2.59124L2.88265 3.39601Z" fill="#EDB300"/>
</g>
<defs>
<clipPath id="clip0_65_51">
<rect width="13" height="13" fill="white" transform="translate(2.89807 0.381012) rotate(9.0671)"/>
</clipPath>
</defs>
</svg>
