<svg width="15" height="16" viewBox="0 0 15 16" fill="none" xmlns="http://www.w3.org/2000/svg">
<path d="M8.06327 10.0539C7.49125 9.33774 7.61386 9.07423 6.77179 8.93984C5.92657 8.80496 5.36486 8.93281 5.37706 10.2293C5.39239 11.5264 6.1116 11.0577 5.89717 12.0177C5.68275 12.9778 5.86624 13.2211 5.96742 13.4754C6.0686 13.7298 6.37276 14.4688 6.68137 13.5445C6.98997 12.6202 7.36914 12.1422 7.7758 11.7341C8.183 11.3227 8.63529 10.77 8.06327 10.0539ZM10.7709 10.4307C10.521 10.5428 10.4783 10.8708 10.6384 11.0793C10.7953 11.2873 11.1321 11.5793 11.3171 11.1876C11.4989 10.7955 11.0208 10.3187 10.7709 10.4307ZM6.10054 7.47254C6.21875 6.99429 7.02515 6.60514 7.55238 6.45108C8.07962 6.29701 8.5455 6.28506 8.54974 5.87492C8.55289 5.47151 8.46192 5.1532 7.6984 5.03135C6.93174 4.909 7.09019 6.05626 6.56601 5.30288C6.04182 4.54949 6.78162 4.84017 7.11946 4.74218C7.45731 4.6442 7.86876 4.08501 7.32588 3.95349C6.783 3.82198 6.85198 4.13678 6.44838 3.89976C6.04478 3.66274 5.72595 4.38861 5.46925 4.24063C5.29829 4.14085 4.87359 3.67262 4.61435 3.23769C3.87046 3.71966 3.23015 4.38042 2.74393 5.16589C2.65767 6.31207 3.13812 6.99633 3.13812 6.99633C3.13812 6.99633 3.31581 7.78073 4.93713 8.96812C4.93713 8.96812 5.26697 9.04147 4.94137 8.55798C4.61576 8.07449 4.26597 7.48012 4.80333 7.28279C5.337 7.08833 5.47203 7.13059 5.51084 7.65462C5.54966 8.17864 5.98233 7.9508 6.10054 7.47254ZM8.695 1.04772C4.8774 0.438485 1.25329 3.26058 0.600538 7.35086C-0.0522119 11.4412 2.51353 15.2511 6.33114 15.8603C10.1487 16.4695 13.7729 13.6474 14.4256 9.55714C15.0783 5.46685 12.5126 1.65695 8.695 1.04772ZM6.43858 15.187C2.96661 14.6329 0.635297 11.1711 1.22895 7.45115C1.8226 3.73117 5.11558 1.16694 8.58755 1.72102C12.0595 2.27509 14.3908 5.73688 13.7972 9.45685C13.2035 13.1768 9.91056 15.7411 6.43858 15.187ZM13.2334 8.79035C13.2362 8.73212 13.2391 8.67389 13.2424 8.61229C13.2471 8.48185 13.2519 8.35142 13.2497 8.22335C13.2474 8.15738 13.2482 8.09191 13.2458 8.02594C13.2405 7.89737 13.2285 7.77116 13.2164 7.64496C13.2093 7.58858 13.2058 7.52935 13.1987 7.47298C13.1774 7.30386 13.1466 7.13325 13.1116 6.96886C13.0972 6.89752 13.076 6.82854 13.0579 6.76007C13.0321 6.65929 13.0089 6.56237 12.9795 6.46446C12.9546 6.37764 12.9262 6.2937 12.8945 6.20925C12.8676 6.1359 12.8411 6.05919 12.811 5.98534C12.7742 5.89315 12.7374 5.80097 12.6968 5.71165C12.6755 5.66337 12.6511 5.61459 12.6267 5.56581C12.4572 5.21426 12.2557 4.88177 12.0248 4.57219C12.0118 4.55285 11.9956 4.53301 11.9826 4.51367C11.8992 4.4106 11.8126 4.30702 11.7223 4.20631C11.7166 4.20194 11.7145 4.19471 11.7088 4.19034C11.3206 3.75556 10.8683 3.37958 10.368 3.08225C10.1642 3.32936 9.94499 3.6534 9.7382 3.73778C9.43484 3.86197 9.34938 4.53878 9.8906 4.55956C9.8906 4.55956 9.70663 4.70281 9.76649 5.33722C9.82636 5.97163 10.0688 6.14841 10.8997 5.92888C11.2564 5.8339 11.4985 5.95195 11.4023 6.31288C11.1996 7.078 10.6457 6.95508 10.8663 8.27798C11 9.07605 11.5811 9.47259 11.7227 10.0993C11.8 10.4431 12.2518 10.8224 12.6406 11.0916C12.7098 10.9404 12.7733 10.7848 12.8342 10.6254C12.8564 10.5668 12.8761 10.5043 12.8988 10.4424C12.9402 10.3247 12.9758 10.2026 13.0113 10.0806C13.0268 10.0244 13.0427 9.96476 13.0581 9.90853C13.1003 9.72538 13.1392 9.54173 13.1688 9.35657C13.1989 9.16804 13.2195 8.97802 13.2334 8.79035Z" fill="#EDB300"/>
</svg>
