<svg width="99" height="292" viewBox="0 0 99 292" fill="none" xmlns="http://www.w3.org/2000/svg">
<path d="M86 11.5C86.8 13.5 88.3333 16.3333 89 17.5C90.8334 18 94.7 18.7 95.5 17.5C96.5 16 98 13 97 10C96.5 8.50003 93 7.50002 91 8.50002C91 7.00002 90 -0.499997 89 0.500003C88.2 1.3 88.6667 8.16667 89 11.5C87.6667 10.6667 84.4 7.50002 86 11.5Z" fill="#FAC1AD"/>
<path d="M27.6809 285L25 228.5L46 225L38.8511 285H27.6809Z" fill="#FAC1AD"/>
<path d="M56.75 284L52 224L71 226L69.2727 284H56.75Z" fill="#FAC1AD"/>
<path d="M89 60C86.6 65.6 76.5 79.5 70 89L71 105.5C80 93.3333 98.1 67.7 98.5 62.5C98.9 57.3 98.5 32 95.5 17.5H89C90 30.1667 91.4 54.4 89 60Z" fill="#FAC1AD"/>
<path d="M15.5 142.5L29 103.5L18.5 97C16.6667 105.833 6.90002 132.5 6.50002 142.5C6.10002 152.5 14.3334 165.667 18.5 171L21 159.5L15.5 142.5Z" fill="#FAC1AD"/>
<path d="M26.4495 140C25.789 131.779 21.3963 100.035 21 97H75L66.578 140H26.4495Z" fill="white"/>
<path d="M2.49999 228C-3.50001 224 9 171.5 26 139.5H67C84.5 169 93.9 224.4 91.5 228C88.5 232.5 77.5 230.5 64 228C50.5 225.5 9.99999 233 2.49999 228Z" fill="#FFC100"/>
<path d="M20 74.4366C18.1646 64.9941 20.4938 46.6214 26 38C32.9744 27.4902 44.2436 26.5402 49.138 28.8666C51.5852 28.7297 57.3973 29.7697 61.068 35.0247C65.6565 41.5933 75 57 75 74.4366C75 87.295 83.0919 103.973 78.5 109C72.9484 115.078 61.068 109 44.5 109C32.6743 109 8.00005 121.866 8 103.5C7.99998 95.5 21.8353 83.879 20 74.4366Z" fill="#522D0F"/>
<path d="M26.5 288.5C25.382 287.382 25.5 280.5 27.5 280C33 283.5 38 281.833 39.5 281L40.5 270.5C42.6667 269.833 44.5 272.5 45 275C45.3922 276.961 42.5 286 39.5 288.5C37.3527 290.289 29.5 291.5 26.5 288.5Z" fill="#FFC100"/>
<path d="M55.7073 290.104C54.5893 288.986 54.7073 282.104 56.7073 281.604C62.2073 285.104 67.2073 283.437 68.7073 282.604L69.7073 272.104C71.874 271.437 73.7073 274.104 74.2073 276.604C74.5995 278.565 71.7073 287.604 68.7073 290.104C66.56 291.893 58.7073 293.104 55.7073 290.104Z" fill="#FFC100"/>
</svg>
