<svg width="95" height="261" viewBox="0 0 95 261" fill="none" xmlns="http://www.w3.org/2000/svg">
<path d="M60.8543 72.8543C60.8543 72.8543 52.3191 65.5007 50.1306 61.4757C47.9421 57.4507 52.2181 46.0042 52.2181 46.0042L42.6561 44.0002C42.6561 44.0002 37.2185 54.1221 33.8853 64.9912C38.0771 82.3818 63.7161 85.6256 60.8543 72.8543Z" fill="#FAC1AD"/>
<path d="M59.5411 23.213C59.5411 23.213 60.8711 26.0661 61.1236 28.4947C61.3761 30.9232 65.5342 33.114 66.9483 33.7764C68.1099 35.0331 66.8978 36.6805 64.8272 37.4277C63.6993 39.0241 64.4063 39.9412 64.6588 40.4167C64.0865 41.0451 63.4804 41.3338 63.4804 41.3338L64.1706 42.5906C64.1706 42.5906 63.4131 43.1001 63.4804 44.5266C63.5478 45.9532 64.5915 50.3518 59.558 49.8933C54.5244 49.4347 53.0766 49.2989 50.9892 51.15C48.9185 53.0012 47.6559 58.198 47.6559 58.198L38.0097 54.5126C38.0097 54.5126 40.9221 46.5476 40.417 43.8473C39.9288 41.164 37.5888 40.0771 36.4272 37.5466C35.2656 35.0331 36.9323 33.0971 38.5821 33.2669C39.8278 30.6685 39.7437 25.7944 41.3261 24.7924C42.9086 23.7904 59.5411 23.213 59.5411 23.213Z" fill="#FAC1AD"/>
<path d="M34.5851 249.997L32.0851 191.997H53.5851L45.5851 249.997H34.5851Z" fill="#FAC1AD"/>
<path d="M74.5851 92.9972L63.5851 97.9972L61.0851 90.9972L72.5851 86.9972L74.5851 92.9972Z" fill="#FAC1AD"/>
<path d="M55.5372 249.997L53.0372 191.997H74.5372L66.5372 249.997H55.5372Z" fill="#FAC1AD"/>
<path d="M46.0851 249.497C42.4851 250.697 36.5851 249.997 34.0851 249.497C30.5851 251.997 30.5851 259.997 32.0851 259.997C33.5851 259.997 57.5851 262.497 57.5851 258.497C57.5851 250.997 49.5851 252.497 46.0851 249.497Z" fill="#FFC100"/>
<path d="M67.0372 249.497C63.4372 250.697 57.5372 249.997 55.0372 249.497C51.5372 251.997 51.5372 259.997 53.0372 259.997C54.5372 259.997 78.5372 262.497 78.5372 258.497C78.5372 250.997 70.5372 252.497 67.0372 249.497Z" fill="#FFC100"/>
<path d="M4.46004 191.49C7.86735 181.885 31.5 121.5 31.5 121.5C31.5 121.5 59.3626 113.118 62.5 121.5C71 133.362 93.5851 200.497 90.0851 205.497C86.8971 206.539 57.7288 207.99 39.6127 207.362C21.5135 206.733 1.05273 201.096 4.46004 191.49Z" fill="#FFC100"/>
<path d="M31.9325 64.3458C31.9325 64.3458 26.5117 80.7684 29.5083 98.2439C32.488 115.736 31.5 122 31.5 122C31.5 122 44.482 125.285 63 122.5C63 116.731 62.5851 113.997 64.1539 104.663C68.1437 92.198 74.7092 84.9632 60.7701 72.5146C53.9858 71.19 50.602 72.4297 48.2115 69.3049C44.4069 64.2779 38.3296 61.4247 31.9325 64.3458Z" fill="white"/>
<path d="M45.4431 72.41C43.8147 70.6332 40.8273 66.0359 36.2307 69.6798C31.6313 73.307 34.1428 82.4091 35.4553 86.8904C36.7843 91.3689 43.2503 112.793 45.061 118.723C50.0944 129.507 76.1372 100.313 76.1372 100.313C78.6943 99.8858 74.8182 92.4228 74.8182 92.4228C74.8182 92.4228 65.2039 98.5925 52.1895 107.865C50.3417 98.4456 48.9812 95.7181 48.8247 87.7375C48.6683 79.757 46.5277 73.5889 45.4431 72.41Z" fill="#FAC1AD"/>
<path d="M47.0331 42.0811C46.2756 38.7185 46.8143 36.3578 48.1274 34.5406C49.4236 32.7235 50.1644 31.4497 50.1644 30.9233C50.1644 30.9233 60.4503 27.8833 62.8408 28.0192C64.0361 23.3488 60.484 16.5217 55.4167 14.1101C50.3327 11.6985 38.8347 9.72845 31.9325 17.133C31.9325 17.133 22.0338 20.7334 22.0338 37.7165C22.0338 48.7724 3.38104 66.7404 6.88263 71.6825C15.2999 83.5706 37.1849 78.4757 45.6022 75.0791C51.1576 72.8373 45.3833 71.1221 47.2856 61.4927C48.9691 53.0012 43.4305 44.1021 40.9053 39.2789C39.2724 36.171 38.0771 33.4877 39.2724 32.5197C40.4676 31.5346 44.4238 31.7724 44.7268 34.9992C45.0298 38.2429 44.7268 41.7754 45.8379 43.3548C45.8379 43.3718 47.555 44.3908 47.0331 42.0811Z" fill="#522D0F"/>
<path d="M35.6529 19.1201C48.2956 17.5237 61.2078 17.2859 73.0761 19.7484C81.1062 21.4128 88.5808 24.2999 94.9611 28.206C85.2139 25.8114 77.9077 30.8214 69.5409 34.1161C61.1741 37.4108 53.1272 41.3678 44.4237 43.9322C35.737 46.4967 26.0235 47.5496 18.0944 44.8493C11.0912 42.4717 6.37752 37.4957 1.95002 32.7235L0.401242 30.2609C-0.777179 28.3758 0.754769 25.9472 3.49881 25.3019C14.1551 22.8224 24.8451 20.4787 35.6529 19.1201Z" fill="#FFC100"/>
<path d="M65.5847 24.2489C67.2682 23.3658 62.5545 10.6286 62.0663 9.55862C59.1539 3.18999 51.713 -1.36146 42.252 0.37081C26.2423 3.32585 26.0908 16.7594 25.1481 26.4397C25.1481 26.4397 41.5955 36.9183 65.5847 24.2489Z" fill="#FFC100"/>
<path d="M25.5521 22.177C29.1042 23.8244 44.7267 29.7854 64.9619 18.1011C65.8204 21.1241 66.3255 23.8583 65.5847 24.2659C41.5955 36.9522 25.1481 26.4567 25.1481 26.4567C25.2827 25.0811 25.4006 23.6375 25.5521 22.177Z" fill="#D99800"/>
<path d="M77.4229 99.0619C77.4229 99.0619 90.0154 93.1048 91.0023 86.1161C91.6702 81.3704 84.8709 87.0278 84.8709 87.0278C84.8709 87.0278 85.3928 86.1503 85.2987 85.5175C85.2047 84.8848 83.5864 86.0104 82.2033 87.1011C80.8202 88.1918 78.7952 89.1226 74.0969 93.6676C72.6694 95.0372 77.4229 99.0619 77.4229 99.0619Z" fill="#FAC1AD"/>
<path d="M70.4926 88.4317C70.4926 88.4317 80.3787 79.3512 86.9757 81.0054C91.4545 82.1306 83.9375 86.1483 83.9375 86.1483C83.9375 86.1483 84.9103 86.0006 85.441 86.3142C85.9718 86.6277 84.3798 87.664 82.9044 88.5031C81.429 89.3422 79.8635 90.8122 74.1016 93.3578C72.3611 94.1353 70.4926 88.4317 70.4926 88.4317Z" fill="#FAC1AD"/>
</svg>
