<svg width="14" height="18" viewBox="0 0 14 18" fill="none" xmlns="http://www.w3.org/2000/svg">
<path d="M7.55354 0.631215C4.00893 0.0655463 0.672982 2.50052 0.103317 6.07019C-0.734736 11.3216 4.8745 17.4188 4.8745 17.4188C4.8745 17.4188 12.1028 13.3703 12.9409 8.11887C13.5105 4.54921 11.0982 1.19688 7.55354 0.631215ZM5.97655 10.513C4.06685 10.2083 2.76676 8.41428 3.07155 6.50442C3.37633 4.59455 5.16978 3.29705 7.07948 3.60181C8.98918 3.90657 10.2893 5.70057 9.98492 7.60769C9.68058 9.51481 7.88625 10.8178 5.97655 10.513ZM6.9238 4.57735C5.56091 4.35986 4.27957 5.29102 4.06206 6.65404C3.84454 8.01705 4.77241 9.30077 6.1353 9.51827C7.49819 9.73577 8.77953 8.8046 8.99704 7.44159C9.21456 6.07858 8.28669 4.79485 6.9238 4.57735Z" fill="#F9BC00"/>
</svg>
