<svg width="104" height="74" viewBox="0 0 104 74" fill="none" xmlns="http://www.w3.org/2000/svg">
<path d="M40.3759 35.0505C52.1296 31.2427 64.4766 28.8447 76.4662 29.4808C84.588 29.9181 92.4355 31.7356 99.4976 34.8424C89.5557 33.9087 83.7673 40.4652 76.5191 45.3619C69.2709 50.2585 62.5075 55.8264 54.7625 60.0114C47.0377 64.1904 37.9393 66.9263 29.6882 65.3823C22.387 63.9976 16.675 59.5006 11.2719 55.1545L9.20804 52.7927C7.6193 50.995 8.51189 48.1328 10.9955 47.0017C20.6059 42.573 30.3108 38.3146 40.3759 35.0505Z" fill="#FFC100"/>
<path d="M70.3541 35.5385C71.7521 34.3102 64.1788 21.5129 63.4528 20.4727C59.1248 14.1791 50.8978 10.5584 42.2234 13.9835C27.5621 19.7964 30.6341 34.1237 32.0604 44.6004C32.0402 44.6064 50.344 53.04 70.3541 35.5385Z" fill="#FFC100"/>
<path d="M31.4025 39.9952C35.204 41.1603 51.6368 44.9073 68.2694 29.0877C69.8149 32.1532 70.9669 35.005 70.3339 35.5445C50.3238 53.046 32.0402 44.6064 32.0402 44.6064C31.8436 43.1233 31.6088 41.5855 31.4025 39.9952Z" fill="#D99800"/>
</svg>
