<svg width="49" height="114" viewBox="0 0 49 114" fill="none" xmlns="http://www.w3.org/2000/svg">
<path d="M30.695 46.8187C30.0259 45.1037 29.5767 43.2234 29.4379 41.032C29.0536 34.9402 30.7995 28.2811 29.0063 22.0582C26.9006 14.7868 19.2319 9.48711 14.2688 5.05509C11.9159 2.94639 8.65778 3.35007 6.65272 5.27854C4.39828 7.44787 4.59183 10.9401 4.71983 14.2698C4.88062 18.4876 4.17363 22.5734 4.36193 26.8378C4.69537 34.6119 9.22335 39.2724 11.9222 46.0783C13.5456 50.1753 12.8531 53.7515 12.7687 57.834C12.4899 70.116 19.5871 80.7292 30.4202 79.4283C37.3601 78.587 44.0312 72.1438 40.8103 62.9105C39.8562 60.1935 38.184 57.8596 36.4446 55.6881C34.0504 52.7027 31.9631 50.0564 30.695 46.8187Z" fill="#03A989"/>
<path d="M19.3426 40.668C20.0974 42.7455 21.0453 45.2199 22.1228 48.0095L11.1177 44.2113C11.3618 44.7426 11.5975 45.2852 11.8246 45.8394L22.7439 49.61C22.9946 50.2519 23.2484 50.9136 23.5151 51.5936C25.0576 55.5609 26.8172 60.0839 28.6365 64.9326L12.8277 60.5754C12.8586 61.0477 12.898 61.5086 12.9574 61.9664L29.2026 66.44C34.2398 79.9643 39.6472 95.858 42.4354 109.907C43.0677 109.699 43.6915 109.503 44.3369 109.313C41.5037 95.17 36.0833 79.258 31.0476 65.7436L36.9769 56.3684C36.7995 56.1416 36.6221 55.9149 36.4346 55.6896C36.3222 55.5545 36.2197 55.4178 36.1072 55.2827L30.4655 64.1981C28.6462 59.3493 26.8895 54.8462 25.3471 50.8789C25.0949 50.2271 24.8472 49.6051 24.6094 48.9815L29.4895 41.7752C29.4633 41.5356 29.4456 41.2846 29.4279 41.0335C29.397 40.5612 29.386 40.0859 29.3736 39.6006L24.0264 47.497C22.9184 44.641 21.953 42.1185 21.1821 40.0029C20.1295 37.108 19.1216 34.1048 18.1583 31.1253L27.5223 18.6098C27.2963 18.1976 27.0518 17.7984 26.7873 17.4021L17.689 29.5829C16.325 25.2435 15.0758 20.988 14.0218 17.2104L19.6574 9.66603C19.3266 9.37122 18.9973 9.08634 18.6581 8.80297L13.5635 15.6055C11.6542 8.61879 10.4563 3.62486 10.4282 3.50734L8.50862 3.98167C8.53669 4.09919 9.7627 9.21065 11.7375 16.3599L4.71682 14.25L4.71832 14.2599C4.73623 14.7139 4.74416 15.1694 4.7421 15.6264L12.1478 17.8503C13.2163 21.6562 14.46 25.9429 15.8386 30.3106L4.36495 26.8576C4.38587 27.3315 4.42676 27.8022 4.47612 28.2616L16.3348 31.8286C17.2866 34.7997 18.2914 37.783 19.3426 40.668Z" fill="#02987B"/>
</svg>
