<svg width="18" height="18" viewBox="0 0 18 18" fill="none" xmlns="http://www.w3.org/2000/svg">
<path fill-rule="evenodd" clip-rule="evenodd" d="M17.4988 7.3966C17.1802 7.2178 16.7666 7.2568 16.3634 7.5032L16.0706 7.6822V2.2474C16.0708 1.008 15.0626 0 13.8232 0H4.1768C2.9374 0 1.9292 1.008 1.9292 2.2474V7.6822L1.6366 7.5032C1.2334 7.2568 0.8196 7.2178 0.501 7.3966C0.1828 7.5752 0 7.9486 0 8.421V12.8586V15.7524C0 16.9918 1.0084 18 2.2476 18H15.7526C16.9916 18 18 16.9918 18 15.7524V12.8586V8.421C18 7.9486 17.8174 7.5752 17.4988 7.3966ZM2.56599 2.2474C2.56599 1.359 3.28879 0.6362 4.17699 0.6362H13.8234C14.7116 0.6362 15.4342 1.3588 15.4342 2.2474V8.0712L13.0134 9.5504L10.3158 11.199C9.60299 11.6352 8.39779 11.6352 7.68479 11.199L4.68479 9.3658L2.56599 8.0712V2.2474ZM17.3631 15.7524V12.8586H17.3636V8.42099C17.3636 8.18899 17.2979 8.01339 17.1877 7.95159C17.0779 7.89019 16.8935 7.92539 16.6955 8.04639L13.3453 10.0936L10.6479 11.7422C10.1857 12.0244 9.59275 12.1656 9.00015 12.1656C8.40715 12.1656 7.81455 12.0244 7.35255 11.7422L4.35255 9.90899L1.30475 8.04639C1.10655 7.92519 0.922549 7.88959 0.812549 7.95179C0.702549 8.01339 0.636749 8.18899 0.636749 8.42099V12.8586V15.7524C0.636749 16.6408 1.35935 17.3634 2.24755 17.3634H15.7523C16.6408 17.3634 17.3631 16.6406 17.3631 15.7524Z" fill="black"/>
</svg>
