<svg width="20" height="20" viewBox="0 0 20 20" fill="none" xmlns="http://www.w3.org/2000/svg">
<path fill-rule="evenodd" clip-rule="evenodd" d="M19.3 10C19.3 15.1362 15.1362 19.3 10 19.3C4.86375 19.3 0.7 15.1362 0.7 10C0.7 4.86375 4.86375 0.7 10 0.7C15.1362 0.7 19.3 4.86375 19.3 10ZM20 10C20 15.5228 15.5228 20 10 20C4.47715 20 0 15.5228 0 10C0 4.47715 4.47715 0 10 0C15.5228 0 20 4.47715 20 10ZM10.5271 11.4065C10.6811 11.5675 10.8668 11.7617 11.1363 11.9908C12.1045 12.8135 11.5909 13.6362 11.1091 14.2635C10.6273 14.8862 10.2 15.5953 9.97271 16.8771C9.74544 18.159 9.14998 17.2499 8.94998 16.9362C8.92812 16.902 8.9049 16.8681 8.881 16.8332C8.6862 16.5487 8.44579 16.1977 8.52271 15.0317C8.56508 14.3894 8.36784 14.2472 8.11887 14.0676C7.86037 13.8812 7.54611 13.6545 7.38634 12.7862C7.07725 11.0817 7.84089 10.7953 9.06362 10.7953C9.94261 10.7953 10.1282 10.9894 10.5271 11.4065ZM15 12.7999C14.7273 12.559 14.7136 12.1181 15.0409 11.9181C15.3682 11.7181 16.15 12.2453 15.9818 12.7999C15.8091 13.3544 15.2682 13.0408 15 12.7999ZM9.60453 7.35442C8.89544 7.66806 7.84544 8.34988 7.78634 9.00442C7.72725 9.65897 7.16816 10.0499 6.99544 9.36806C6.82271 8.68624 6.62271 8.65897 5.91362 9.02715C5.19998 9.39988 5.82725 10.109 6.39544 10.6771C6.96362 11.2453 6.4818 11.2181 6.4818 11.2181C3.92725 9.99533 3.49998 8.99988 3.49998 8.99988C3.49998 8.99988 2.66816 8.19988 2.5318 6.6726C3.04089 5.53624 3.79544 4.53169 4.73634 3.74078C5.19998 4.25897 5.90453 4.78624 6.16816 4.88169C6.34325 4.94408 6.49695 4.77837 6.66792 4.59403C6.88312 4.36202 7.12569 4.1005 7.47271 4.22715C7.79791 4.34583 7.90742 4.29346 8.05111 4.22473C8.18258 4.16185 8.34266 4.08528 8.72271 4.11351C9.51816 4.1726 9.06362 4.99533 8.60907 5.19533C8.48549 5.24971 8.31352 5.2725 8.14688 5.29459C7.70062 5.35373 7.2926 5.40781 7.95453 6.04988C8.43161 6.51265 8.52563 6.32571 8.66754 6.04354C8.79605 5.78802 8.96384 5.45442 9.49089 5.45442C10.5954 5.45442 10.7954 5.85442 10.8818 6.38624C10.951 6.81937 10.545 6.97854 10.0165 7.1858C9.88494 7.23738 9.74582 7.29193 9.60453 7.35442ZM18.1182 9.00442C18.1273 9.08624 18.1363 9.16351 18.1454 9.24079C18.1682 9.49079 18.1818 9.74533 18.1818 9.99988C18.1818 10.2499 18.1682 10.4999 18.15 10.7499C18.1454 10.7884 18.1409 10.8281 18.1364 10.8678C18.1318 10.9077 18.1273 10.9475 18.1227 10.9862C18.1 11.1544 18.0773 11.3226 18.0454 11.4862C18.0371 11.5257 18.0298 11.5652 18.0225 11.6043C18.0138 11.6506 18.0053 11.6964 17.9954 11.7408C17.9454 11.9635 17.8909 12.1817 17.8273 12.3953C17.2182 12.1226 16.4954 11.7181 16.3091 11.2817C16.1543 10.9207 15.8826 10.6411 15.5975 10.3478C15.2544 9.99487 14.892 9.62206 14.6909 9.06351C14.2969 7.96673 14.4963 7.59847 14.7171 7.19091C14.8376 6.96844 14.9644 6.73427 15.0045 6.36351C15.0591 5.86806 14.6909 5.76351 14.2091 5.96351C13.0863 6.42715 12.7045 6.24533 12.4773 5.4226C12.25 4.59988 12.4773 4.3726 12.4773 4.3726C11.7091 4.45897 11.6773 3.54988 12.0773 3.3226C12.2944 3.19953 12.4886 2.87469 12.6757 2.56154C12.7235 2.48146 12.771 2.40213 12.8182 2.32715C13.5909 2.61351 14.3136 3.01351 14.9591 3.50442C14.9636 3.50669 14.967 3.5101 14.9704 3.51351C14.9738 3.51692 14.9773 3.52033 14.9818 3.5226C15.1318 3.63624 15.2773 3.75442 15.4182 3.8726C15.4295 3.88397 15.442 3.89533 15.4545 3.90669C15.467 3.91806 15.4795 3.92942 15.4909 3.94078C15.8863 4.29988 16.2454 4.69533 16.5636 5.1226L16.5637 5.12269C16.6091 5.18175 16.6545 5.24081 16.6954 5.29988C16.7727 5.40897 16.8454 5.5226 16.9182 5.63624C16.9612 5.70252 17.0019 5.77121 17.0419 5.8388C17.0568 5.86392 17.0716 5.88888 17.0863 5.91351C17.15 6.01806 17.2091 6.1226 17.2636 6.23169C17.3137 6.32832 17.3582 6.42495 17.4037 6.5238C17.416 6.5505 17.4283 6.57736 17.4409 6.60442C17.4526 6.62918 17.4647 6.65393 17.4769 6.6788C17.5071 6.74067 17.5377 6.80321 17.5636 6.86806C17.65 7.07715 17.7318 7.29533 17.8 7.51351C17.8113 7.54988 17.8216 7.58738 17.8318 7.62488C17.842 7.66238 17.8523 7.69988 17.8636 7.73624C17.9091 7.89988 17.9545 8.06351 17.9909 8.2317C18 8.27489 18.0079 8.31808 18.0159 8.36127C18.0238 8.40444 18.0318 8.44761 18.0409 8.49079C18.0727 8.65897 18.0954 8.83169 18.1182 9.00442Z" fill="black"/>
</svg>
