<svg width="16" height="20" viewBox="0 0 16 20" fill="none" xmlns="http://www.w3.org/2000/svg">
<path d="M15.5468 14.1459C13.7911 13.1517 12.5106 11.5253 11.9788 9.61668L11.1136 6.4622C10.4749 4.12089 8.34169 2.46386 5.85924 2.38101L5.53517 1.20268C5.29605 0.337348 4.38676 -0.175102 3.49635 0.0550402C2.61223 0.288251 2.0868 1.17813 2.32592 2.04347L2.64999 3.2218C0.548243 4.50752 -0.449141 6.98079 0.192709 9.31903L1.05795 12.4735C1.231 13.1056 1.31909 13.7531 1.31909 14.4067C1.31909 15.7139 0.966704 16.9996 0.296537 18.135C0.107758 18.4449 0.132929 18.8377 0.359464 19.12C0.532512 19.341 0.796803 19.4698 1.07997 19.4698C1.15863 19.4698 1.24043 19.4606 1.31595 19.4391L6.09836 18.1902C6.46648 19.0218 7.3034 19.565 8.23471 19.565C8.90173 19.565 9.53414 19.2888 9.97463 18.804C10.4151 18.3191 10.6259 17.6717 10.5441 17.0273L15.3265 15.7784C15.7261 15.674 16.003 15.3181 15.9998 14.913C16.0061 14.5939 15.8299 14.3024 15.5468 14.1459ZM3.0653 1.13517C3.24464 0.834455 3.57186 0.647273 3.93054 0.647273C4.38361 0.647273 4.78005 0.941855 4.89646 1.36838L5.17648 2.39328C5.14502 2.39635 5.11356 2.40249 5.0821 2.40556C4.97827 2.41476 4.87444 2.43011 4.77061 2.44545C4.71712 2.45466 4.66049 2.46386 4.607 2.47307C4.49059 2.49455 4.37732 2.5191 4.26405 2.54671C4.23888 2.55285 4.21371 2.55592 4.18854 2.56206C4.16337 2.56819 4.14764 2.57433 4.12876 2.58047C4.00291 2.61422 3.87705 2.65411 3.75435 2.69707C3.71974 2.70935 3.69142 2.71855 3.65681 2.73083C3.52781 2.77685 3.40196 2.82902 3.27925 2.88425C3.26981 2.88732 3.26037 2.89039 3.25094 2.89653L2.96777 1.8747C2.89855 1.62614 2.93316 1.35918 3.0653 1.13517ZM9.89597 17.196C9.94316 17.9632 9.42717 18.6597 8.66576 18.8592C7.90435 19.0586 7.10204 18.7058 6.7465 18.0184L9.89597 17.196ZM15.1566 15.1493L1.1429 18.8101C1.04851 18.8377 0.94468 18.8009 0.8849 18.7242C0.821973 18.6475 0.815681 18.5401 0.869168 18.4572C1.59597 17.2236 1.97982 15.8275 1.98297 14.4036C1.98297 13.6948 1.88858 12.986 1.6998 12.3017L0.831412 9.15026C0.24305 7.0084 1.21212 4.74994 3.18801 3.65446L3.1943 3.6514C3.47432 3.50104 3.76693 3.37829 4.07213 3.28317C4.16651 3.25248 4.2609 3.21566 4.35844 3.19111C4.6951 3.10519 5.03805 3.05303 5.38729 3.03461C5.45965 3.03155 5.53517 3.02541 5.60753 3.02541H5.65787C7.91379 3.02541 9.88968 4.50752 10.4717 6.63404L11.337 9.78852C11.9159 11.8629 13.3097 13.6334 15.2164 14.7105C15.2919 14.7504 15.3391 14.8271 15.3391 14.913C15.3423 15.0235 15.2667 15.1217 15.1566 15.1493Z" fill="#121212"/>
</svg>
