<svg width="20" height="20" viewBox="0 0 20 20" fill="none" xmlns="http://www.w3.org/2000/svg">
<path fill-rule="evenodd" clip-rule="evenodd" d="M17.5526 3.34203L18.2326 3.23945C18.7504 3.09565 19.2644 3.21729 19.6008 3.55827C19.8655 3.82681 20.0075 4.21255 19.9997 4.64371L19.9497 5.34761C19.481 11.8698 16.8437 16.523 12.1111 19.1782C11.4776 19.5341 10.9513 19.7643 10.9293 19.7738C10.6758 19.8839 10.3458 19.9446 9.9998 19.9446C9.65358 19.9446 9.32358 19.8837 9.07025 19.7738L9.06763 19.7726C9.02159 19.7523 8.50515 19.5246 7.88693 19.1778C3.1552 16.5226 0.518334 11.8695 0.049228 5.34784L0.000339582 4.66321C-0.00788256 4.21521 0.133449 3.83124 0.397669 3.56315C0.736554 3.2195 1.25655 3.09787 1.77988 3.24277L2.46609 3.34491C4.76607 3.68745 6.74938 3.17586 8.32959 1.82654L8.81159 1.41532C9.12647 1.03999 9.54736 0.833496 9.9998 0.833496C10.4527 0.833496 10.8733 1.03999 11.1885 1.41532L11.6704 1.82698C13.2549 3.17984 15.2466 3.69055 17.5526 3.34203ZM11.7647 18.5643C16.2771 16.0318 18.794 11.5687 19.2446 5.29754L19.2942 4.61269C19.2973 4.39091 19.2278 4.18574 19.0969 4.0528C18.9358 3.88929 18.6844 3.84232 18.408 3.92297L18.3613 3.9336L17.6589 4.03951C15.1436 4.41949 12.954 3.85118 11.2105 2.36272L10.6601 1.88481C10.4794 1.66192 10.2454 1.53895 10.0001 1.53895C9.75496 1.53895 9.52074 1.66192 9.34052 1.88481L9.29541 1.93112L8.79008 2.36272C7.05143 3.84675 4.86945 4.41661 2.36192 4.04261L1.60571 3.92696C1.51415 3.89993 1.42504 3.88641 1.34082 3.88641C1.1646 3.88641 1.01327 3.94535 0.902826 4.05768C0.772605 4.18973 0.703051 4.39379 0.707273 4.63197L0.755494 5.29754C1.20682 11.568 3.72258 16.0309 8.23475 18.5634C8.83586 18.901 9.34874 19.125 9.35385 19.1273C9.68074 19.2693 10.3194 19.2697 10.647 19.1273C10.6472 19.1272 10.6483 19.1266 10.6504 19.1257C10.6964 19.1054 11.19 18.8866 11.7647 18.5643Z" fill="black"/>
</svg>
