<svg width="20" height="18" viewBox="0 0 20 18" fill="none" xmlns="http://www.w3.org/2000/svg">
<path fill-rule="evenodd" clip-rule="evenodd" d="M18.9187 1.56281C18.1549 1.15407 16.9082 0.666504 15.3053 0.666504C13.0207 0.666504 10.8411 1.64297 10.0956 2.01385C10.0429 2.0402 9.95733 2.0402 9.90467 2.01385C9.15911 1.64275 6.97933 0.666504 4.69467 0.666504C3.092 0.666504 1.84511 1.15407 1.08156 1.56303C0.495111 1.87723 0.311778 2.02824 0.280667 2.05503C0.115556 2.20006 0 2.45492 0 2.67434V16.3437C0 16.8114 0.263333 17.0206 0.524444 17.0206C0.608667 17.0206 0.733111 16.9978 0.865778 16.8955L1.41533 16.6015C2.10756 16.2306 3.23844 15.7888 4.69444 15.7888C6.29156 15.7888 7.85956 16.3092 8.89422 16.7456L9.48044 16.9929C9.62667 17.0693 9.81022 17.111 10.0002 17.111C10.19 17.111 10.3733 17.0693 10.5193 16.9929L11.1047 16.746C12.1393 16.3094 13.708 15.7888 15.3053 15.7888C16.7616 15.7888 17.8924 16.2306 18.5847 16.6015L19.1344 16.8955C19.2669 16.998 19.3916 17.0206 19.4758 17.0206C19.7369 17.0206 20 16.8116 20 16.3437V2.67434C20 2.45492 19.8844 2.2005 19.7196 2.05525C19.6889 2.02824 19.5053 1.87701 18.9187 1.56281ZM9.64616 16.1909C9.64616 16.2498 9.60216 16.2788 9.54749 16.256L9.17016 16.0966C8.07527 15.6349 6.41038 15.0838 4.69438 15.0838C3.09127 15.0838 1.84394 15.5716 1.08016 15.9808L0.801716 16.1293C0.749938 16.1575 0.707494 16.1324 0.707494 16.0733V2.6774C0.709494 2.65304 0.733716 2.59968 0.744161 2.58773L0.744564 2.58741C0.753695 2.58016 0.914188 2.45285 1.4166 2.18385C2.10861 1.81342 3.23905 1.37168 4.69461 1.37168C6.77127 1.37168 8.82238 2.27198 9.55038 2.62736C9.60349 2.65327 9.64638 2.72257 9.64638 2.78169V16.1909H9.64616ZM19.1977 16.1291C19.2502 16.1572 19.2924 16.1322 19.2924 16.073V2.67379C19.2906 2.65253 19.2662 2.59939 19.249 2.58123C19.249 2.58121 19.2487 2.58096 19.248 2.58046C19.2337 2.56951 19.0665 2.44179 18.5835 2.18334C17.8917 1.8129 16.7613 1.37117 15.3053 1.37117C13.2288 1.37117 11.1777 2.27169 10.4497 2.62685C10.3964 2.65253 10.3535 2.72183 10.3535 2.78118V16.1904C10.3535 16.2493 10.3977 16.2785 10.4522 16.2555L10.8282 16.0967C11.9233 15.6344 13.589 15.0833 15.305 15.0833C16.9084 15.0833 18.1555 15.5711 18.9195 15.9803L19.1977 16.1291Z" fill="#121212"/>
</svg>
