<svg width="30" height="25" viewBox="0 0 30 25" fill="none" xmlns="http://www.w3.org/2000/svg">
<path d="M26.5866 14.4812C28.2666 13.0145 29.3333 10.8612 29.3333 8.45452C29.3333 4.03453 25.7533 0.454529 21.3333 0.454529C17.32 0.454529 14.0067 3.41453 13.4333 7.26786C12.9667 7.18119 12.4933 7.12119 12 7.12119C7.98666 7.12119 4.67333 10.0812 4.1 13.9345C1.74667 14.4945 0 16.6012 0 19.1212C0 22.0678 2.38666 24.4545 5.33333 24.4545H24C26.9466 24.4545 29.3333 22.0678 29.3333 19.1212C29.3333 17.1212 28.22 15.3945 26.5866 14.4812ZM21.3333 1.78786C25.0133 1.78786 28 4.77453 28 8.45452C28 10.6345 26.9466 12.5612 25.3333 13.7812C25.3266 11.5745 23.54 9.78786 21.3333 9.78786C20.3267 9.78786 19.4067 10.1612 18.7 10.7812C17.76 9.33452 16.3667 8.21452 14.72 7.61452C15.14 4.32786 17.94 1.78786 21.3333 1.78786ZM24 23.1212H5.33333C3.12666 23.1212 1.33333 21.3278 1.33333 19.1212C1.33333 17.2612 2.6 15.6679 4.40666 15.2345C4.93333 15.1079 5.34 14.6745 5.42 14.1345C5.9 10.8945 8.72666 8.45452 12 8.45452C14.26 8.45452 15.68 8.92786 16.92 10.8345C17.1333 11.1612 18.14 12.0412 18.52 12.0945C18.58 12.1012 18.7067 12.1079 18.7067 12.1079C19.0267 12.1079 19.34 11.9945 19.5867 11.7812C20.0667 11.3545 20.6933 11.1212 21.3333 11.1212C22.8067 11.1212 24 12.3145 24 13.8012L23.9933 13.9012C23.9667 14.5345 24.38 15.0945 24.9933 15.2545C26.7666 15.7079 28 17.2945 28 19.1212C28 21.3278 26.2066 23.1212 24 23.1212Z" fill="white"/>
</svg>
