<svg width="30" height="28" viewBox="0 0 30 28" fill="none" xmlns="http://www.w3.org/2000/svg">
<path d="M12.6465 11.6464L4.47852 24.5216L17.3538 16.3537L25.5217 3.47845L12.6465 11.6464ZM15.7858 14.7858C15.3528 15.2188 14.6509 15.2188 14.2179 14.7858C13.7849 14.3527 13.7849 13.6508 14.2179 13.2178C14.6509 12.7848 15.3528 12.7848 15.7858 13.2178C16.2188 13.6474 16.2188 14.3527 15.7858 14.7858Z" fill="#AFAFAF"/>
<path d="M6.45143 17.541C5.99746 16.4479 5.74603 15.2537 5.74603 14C5.74603 8.8981 9.8981 4.74603 15 4.74603C16.2397 4.74603 17.4235 4.99397 18.506 5.43746L20.3883 4.41079C18.7959 3.51333 16.9591 3 15 3C8.92381 3 4 7.92381 4 14C4 15.9241 4.49587 17.7295 5.36191 19.3045L6.45143 17.541Z" fill="#AFAFAF"/>
<path d="M23.5213 10.3927C23.9927 11.5032 24.2546 12.7219 24.2546 14C24.2546 19.1019 20.1026 23.254 15.0006 23.254C13.6876 23.254 12.4375 22.9781 11.306 22.4822L9.6543 23.6137C11.2362 24.4937 13.0591 25 15.0006 25C21.0768 25 26.0007 20.0762 26.0007 14C26.0007 12.041 25.4873 10.2041 24.5899 8.61176L23.5213 10.3927Z" fill="#AFAFAF"/>
</svg>
