<svg width="24" height="21" viewBox="0 0 24 21" fill="none" xmlns="http://www.w3.org/2000/svg">
<path fill-rule="evenodd" clip-rule="evenodd" d="M11.2838 20.4638C11.1083 20.3549 9.61934 19.4316 8.75333 18.8223C2.07258 14.1265 -1.07654 8.66895 0.329277 4.22448C1.12845 1.69765 3.35324 0 5.86507 0C7.4615 0 9.07262 0.617181 10.2846 1.69382C11.2131 2.51885 11.838 3.83144 12.0005 4.19574C12.179 3.79504 12.7993 2.50768 13.7157 1.69382C14.9274 0.6175 16.5379 0 18.1346 0C20.6468 0 22.8715 1.69765 23.6707 4.2248C25.0765 8.66927 21.9274 14.1265 15.2467 18.8223C14.3811 19.4311 12.8936 20.3534 12.716 20.4635C12.7085 20.4681 12.7034 20.4713 12.7007 20.473C12.5072 20.5933 12.2581 20.6594 12.0002 20.6594C11.7428 20.6594 11.4935 20.5933 11.2987 20.473C11.296 20.4713 11.291 20.4682 11.2838 20.4638ZM5.86503 1.01596C3.79797 1.01596 1.96271 2.42848 1.29796 4.53067C0.0329421 8.53101 3.03839 13.563 9.33823 17.9908C10.162 18.5702 11.6253 19.4792 11.8132 19.5959C11.8253 19.6035 11.8322 19.6077 11.8331 19.6083C11.8542 19.6211 11.9133 19.6435 12.0004 19.6435C12.0876 19.6435 12.146 19.6217 12.1668 19.6083C12.1674 19.6079 12.1705 19.606 12.1758 19.6027C12.307 19.5214 13.8198 18.5833 14.6623 17.9908C20.9622 13.5626 23.9676 8.53133 22.7023 4.53098C22.0375 2.42848 20.202 1.01596 18.1349 1.01596C16.7837 1.01596 15.419 1.53991 14.3909 2.45339C13.5206 3.2258 12.9272 4.60934 12.8981 4.67728C12.8975 4.67865 12.8971 4.67949 12.897 4.67977C12.6486 5.37997 12.2281 5.48853 12.0001 5.48853C11.7722 5.48853 11.3517 5.38029 11.0933 4.65519C11.0933 4.65519 11.093 4.6544 11.0923 4.65284C11.0645 4.58852 10.4728 3.21994 9.60994 2.45339C8.5812 1.53991 7.21593 1.01596 5.86503 1.01596Z" fill="#00CEA6"/>
</svg>
