<svg width="24" height="21" viewBox="0 0 24 21" fill="none" xmlns="http://www.w3.org/2000/svg">
<path d="M8.75333 18.8223C9.655 19.4567 11.232 20.4315 11.2987 20.473C11.4935 20.5933 11.7428 20.6594 12.0002 20.6594C12.2581 20.6594 12.5072 20.5933 12.7007 20.473C12.7674 20.4315 14.3447 19.4567 15.2467 18.8223C21.9274 14.1265 25.0765 8.66927 23.6707 4.2248C22.8715 1.69765 20.6468 0 18.1346 0C16.5379 0 14.9274 0.6175 13.7157 1.69382C12.7993 2.50768 12.179 3.79504 12.0005 4.19574C11.838 3.83144 11.2131 2.51885 10.2846 1.69382C9.07262 0.617181 7.4615 0 5.86507 0C3.35324 0 1.12845 1.69765 0.329277 4.22448C-1.07654 8.66895 2.07258 14.1265 8.75333 18.8223Z" fill="#00CEA6"/>
</svg>
