<svg width="10" height="14" viewBox="0 0 10 14" fill="none" xmlns="http://www.w3.org/2000/svg">
<path d="M5 0C2.23887 0 0 2.25385 0 5.03425C0 9.12457 5 13.0758 5 13.0758C5 13.0758 10 9.12457 10 5.03425C10 2.25385 7.76113 0 5 0ZM5 7.69692C3.51241 7.69692 2.30736 6.49187 2.30736 5.00428C2.30736 3.5167 3.51241 2.31378 5 2.31378C6.48759 2.31378 7.69264 3.51884 7.69264 5.00428C7.69264 6.48973 6.48759 7.69692 5 7.69692ZM5 3.07363C3.93836 3.07363 3.07791 3.93622 3.07791 4.99786C3.07791 6.0595 3.93836 6.92209 5 6.92209C6.06164 6.92209 6.92209 6.0595 6.92209 4.99786C6.92209 3.93622 6.06164 3.07363 5 3.07363Z" fill="white"/>
</svg>
