<svg width="30" height="28" viewBox="0 0 30 28" fill="none" xmlns="http://www.w3.org/2000/svg">
<path d="M12.1146 2C7.63352 2 4 5.65784 4 10.1702C4 16.8085 12.1146 23.221 12.1146 23.221C12.1146 23.221 20.2293 16.8085 20.2293 10.1702C20.2293 5.65784 16.5957 2 12.1146 2ZM12.1146 14.4915C9.70039 14.4915 7.74468 12.5358 7.74468 10.1216C7.74468 7.70734 9.70039 5.7551 12.1146 5.7551C14.5289 5.7551 16.4846 7.71081 16.4846 10.1216C16.4846 12.5323 14.5289 14.4915 12.1146 14.4915ZM12.1146 6.98828C10.3917 6.98828 8.99522 8.38819 8.99522 10.1112C8.99522 11.8341 10.3917 13.234 12.1146 13.234C13.8376 13.234 15.234 11.8341 15.234 10.1112C15.234 8.38819 13.8376 6.98828 12.1146 6.98828Z" fill="#AFAFAF"/>
<path d="M20.8548 24.739C20.4936 24.7911 20.1115 24.8294 19.7189 24.8537C19.4063 24.8745 19.1666 25.1455 19.1874 25.4581C19.2083 25.7603 19.4584 25.9896 19.7537 25.9896C19.7676 25.9896 19.778 25.9896 19.7919 25.9896C20.2122 25.9618 20.6221 25.9201 21.0146 25.8645C21.3273 25.8194 21.5426 25.5311 21.4975 25.2219C21.4558 24.9127 21.1675 24.6939 20.8548 24.739ZM22.6542 16.079C22.491 15.7872 22.3902 15.485 22.359 15.1793C22.3242 14.8667 22.0498 14.6409 21.7337 14.6756C21.421 14.7104 21.1953 14.9883 21.2265 15.3009C21.2751 15.7594 21.421 16.211 21.6607 16.6348C21.7649 16.8224 21.9595 16.9266 22.1575 16.9266C22.2513 16.9266 22.3485 16.9023 22.4354 16.8537C22.7098 16.7008 22.8071 16.3535 22.6542 16.079ZM14.0984 24.2736C13.7372 24.145 13.4072 23.9922 13.1188 23.822C12.8479 23.6622 12.497 23.7525 12.3407 24.0235C12.1809 24.2944 12.2712 24.6453 12.5422 24.8016C12.8896 25.0065 13.2856 25.1872 13.7128 25.34C13.7754 25.3608 13.8414 25.3713 13.9039 25.3713C14.1366 25.3713 14.3555 25.2288 14.4388 24.9926C14.5465 24.7043 14.3937 24.3778 14.0984 24.2736ZM17.4228 24.8606C17.0303 24.8398 16.6447 24.805 16.2834 24.7634C15.9708 24.7182 15.6859 24.944 15.6477 25.2566C15.6095 25.5693 15.8318 25.8541 16.141 25.8923C16.53 25.941 16.9399 25.9757 17.3603 26C17.3707 26 17.3811 26 17.3915 26C17.6937 26 17.9438 25.7638 17.9612 25.4616C17.9751 25.1455 17.7354 24.878 17.4228 24.8606ZM23.943 23.6865C23.6755 23.8706 23.3594 24.0408 23.0085 24.1832C22.7167 24.3048 22.5778 24.6348 22.6994 24.9266C22.7897 25.1455 23.0016 25.2775 23.2274 25.2775C23.3003 25.2775 23.3733 25.2636 23.4428 25.2358C23.87 25.0586 24.2591 24.8502 24.5926 24.6209C24.8496 24.4403 24.9156 24.086 24.735 23.8289C24.5543 23.5719 24.2 23.5059 23.943 23.6865ZM26.1279 20.977C26.0619 20.6678 25.7597 20.4733 25.454 20.5358C25.1449 20.5984 24.9469 20.9006 25.0129 21.2097C25.0511 21.3938 25.0719 21.5745 25.0719 21.7447C25.0719 21.8836 25.058 22.0261 25.0337 22.1581C24.9747 22.4672 25.1761 22.766 25.4853 22.825C25.52 22.832 25.5583 22.8354 25.593 22.8354C25.8605 22.8354 26.1002 22.6479 26.1523 22.3734C26.194 22.1685 26.2113 21.9566 26.2113 21.7412C26.2113 21.4946 26.1835 21.2375 26.1279 20.977ZM24.9781 18.6426C24.7385 18.3265 24.4606 18.0104 24.1514 17.6978C23.9326 17.472 23.5713 17.472 23.3455 17.6908C23.1197 17.9097 23.1197 18.271 23.3385 18.4967C23.613 18.7746 23.8596 19.056 24.0715 19.3339C24.1827 19.4798 24.3529 19.5562 24.5231 19.5562C24.6447 19.5562 24.7662 19.518 24.867 19.4381C25.1206 19.2505 25.1692 18.8928 24.9781 18.6426Z" fill="#AFAFAF"/>
</svg>
