<svg width="16" height="13" viewBox="0 0 16 13" fill="none" xmlns="http://www.w3.org/2000/svg">
<path fill-rule="evenodd" clip-rule="evenodd" d="M12.7947 2.98638H13.4427C14.4133 2.98638 15.2 3.76855 15.2 4.73367V10.7842C15.2 11.7494 14.4133 12.5315 13.4427 12.5315H2.55732C1.58665 12.5315 0.799988 11.7494 0.799988 10.7842V4.73367C0.799988 3.76855 1.58665 2.98638 2.55732 2.98638H3.20532C3.27999 2.98638 3.34399 2.93601 3.36265 2.86442L3.67465 1.62355C3.82665 1.02167 4.37065 0.600098 4.99465 0.600098H11.0053C11.632 0.600098 12.1733 1.02167 12.3253 1.6262L12.6373 2.86707C12.656 2.93601 12.72 2.98638 12.7947 2.98638ZM4.39999 7.16238C4.39999 9.1377 6.01332 10.7418 7.99999 10.7418C9.98665 10.7418 11.6 9.1377 11.6 7.16238C11.6 5.18707 9.98665 3.58295 7.99999 3.58295C6.01332 3.58295 4.39999 5.18707 4.39999 7.16238ZM12.2 5.37267C12.2 5.70145 12.4693 5.96924 12.8 5.96924C13.1307 5.96924 13.4 5.70145 13.4 5.37267C13.4 5.04389 13.1307 4.7761 12.8 4.7761C12.4693 4.7761 12.2 5.04389 12.2 5.37267ZM5.59999 7.1624C5.59999 5.84729 6.67732 4.77611 7.99999 4.77611C9.32265 4.77611 10.4 5.84729 10.4 7.1624C10.4 8.4775 9.32265 9.54868 7.99999 9.54868C6.67732 9.54868 5.59999 8.4775 5.59999 7.1624Z" fill="#00CEA6"/>
</svg>
