<svg width="28" height="25" viewBox="0 0 28 25" fill="none" xmlns="http://www.w3.org/2000/svg">
<g clip-path="url(#clip0_40_10)">
<path d="M13.9995 0C21.3629 0 27.3323 4.72927 27.3323 10.5626C27.3323 12.6003 26.6031 14.5028 25.3419 16.1161C25.2793 16.2084 25.1976 16.3093 25.0946 16.4216L25.0869 16.4301C24.6559 16.9403 24.1711 17.419 23.6372 17.8616C19.9497 21.2336 13.8811 25.2472 13.0798 24.6276C12.3833 24.0889 14.2265 21.4563 12.1004 21.0185C11.9523 21.0014 11.8041 20.9833 11.6569 20.9633H11.654C5.40946 20.0839 0.666626 15.762 0.666626 10.5626C0.666626 4.72927 6.63606 0 13.9995 0Z" fill="white"/>
<path d="M6.26367 13.9318H6.30792H6.32139H8.95256C9.33545 13.9318 9.64811 13.6225 9.64811 13.2437V13.1866C9.64811 12.8078 9.33545 12.4984 8.95256 12.4984H7.01694V8.1413C7.01694 7.76251 6.70428 7.45319 6.32139 7.45319H6.26367C5.88078 7.45319 5.56812 7.76251 5.56812 8.1413V13.2437C5.56812 13.6225 5.88078 13.9318 6.26367 13.9318ZM22.9261 10.7329V10.6758C22.9261 10.297 22.6135 9.98771 22.2306 9.98771H20.295V8.8989H22.2306C22.6135 8.8989 22.9261 8.58958 22.9261 8.21078V8.15368C22.9261 7.77488 22.6135 7.46556 22.2306 7.46556H19.5994H19.5859H19.5417C19.1588 7.46556 18.8461 7.77488 18.8461 8.15368V13.256C18.8461 13.6348 19.1588 13.9441 19.5417 13.9441H19.5859H19.5994H22.2306C22.6135 13.9441 22.9261 13.6348 22.9261 13.256V13.1989C22.9261 12.8201 22.6135 12.5108 22.2306 12.5108H20.295V11.421H22.2306C22.6135 11.421 22.9261 11.1117 22.9261 10.7329ZM17.7552 13.7262C17.8793 13.6015 17.9562 13.4312 17.9562 13.2437V8.1413C17.9562 7.76251 17.6436 7.45319 17.2607 7.45319H17.203C16.8201 7.45319 16.5074 7.76251 16.5074 8.1413V11.1365L13.9936 7.80153C13.8734 7.59405 13.6473 7.45319 13.3895 7.45319H13.3317C12.9489 7.45319 12.6362 7.76251 12.6362 8.1413V13.2437C12.6362 13.6225 12.9489 13.9318 13.3317 13.9318H13.3895C13.7724 13.9318 14.085 13.6225 14.085 13.2437V10.1923L16.6161 13.6129C16.6315 13.6367 16.6488 13.6596 16.6671 13.6815C16.7364 13.7757 16.8316 13.8395 16.9375 13.8794C17.0192 13.9127 17.1077 13.9308 17.201 13.9308H17.2588C17.3761 13.9308 17.4868 13.9013 17.5839 13.8509C17.6551 13.8185 17.7138 13.7766 17.7552 13.7262ZM10.9045 13.9318H10.9622C11.3451 13.9318 11.6578 13.6225 11.6578 13.2437V8.1413C11.6578 7.76251 11.3451 7.45319 10.9622 7.45319H10.9045C10.5216 7.45319 10.209 7.76251 10.209 8.1413V13.2437C10.209 13.6225 10.5226 13.9318 10.9045 13.9318Z" fill="#3ACE01"/>
</g>
<defs>
<clipPath id="clip0_40_10">
<rect width="26.6667" height="24.6914" fill="white" transform="translate(0.666626)"/>
</clipPath>
</defs>
</svg>
