<svg width="28" height="25" viewBox="0 0 28 25" fill="none" xmlns="http://www.w3.org/2000/svg">
<g clip-path="url(#clip0_40_3)">
<path d="M14 0C6.63586 0 0.666626 4.61447 0.666626 10.3075C0.666626 13.988 3.16278 17.2172 6.91663 19.0411C6.71278 19.7312 5.6038 23.4834 5.56022 23.7788C5.56022 23.7788 5.53329 24 5.67945 24.0842C5.8256 24.1685 5.9974 24.1031 5.9974 24.1031C6.41663 24.0453 10.8615 20.9845 11.6307 20.4528C12.4 20.5596 13.191 20.6149 13.9987 20.6149C21.3628 20.6149 27.332 16.0004 27.332 10.3075C27.3333 4.61447 21.3641 0 14 0Z" fill="black"/>
<path d="M6.62817 13.9063C6.20381 13.9063 5.85894 13.5832 5.85894 13.186V8.70477H4.65894C4.24227 8.70477 3.90381 8.37292 3.90381 7.96565C3.90381 7.55838 4.24227 7.22653 4.65894 7.22653H8.5974C9.01407 7.22653 9.35253 7.55838 9.35253 7.96565C9.35253 8.37292 9.01407 8.70477 8.5974 8.70477H7.3974V13.1847C7.3974 13.582 7.05253 13.9063 6.62817 13.9063Z" fill="#FFE812"/>
<path d="M13.373 13.8962C13.0525 13.8962 12.8064 13.768 12.7333 13.5631L12.3525 12.5851H10.0064L9.62559 13.5631C9.55251 13.768 9.30636 13.8962 8.98585 13.8962C8.81662 13.8962 8.64739 13.8597 8.49739 13.7919C8.28585 13.6963 8.082 13.4324 8.31534 12.7209L10.1538 7.97193C10.2833 7.61117 10.6769 7.2391 11.1782 7.22778C11.6807 7.2391 12.0743 7.61117 12.2038 7.97319L14.0435 12.7196C14.2782 13.4324 14.0743 13.6963 13.8615 13.7919C13.7115 13.8597 13.5423 13.8962 13.373 13.8962ZM11.9474 11.2489L11.1794 9.10952L10.4115 11.2502H11.9474V11.2489Z" fill="#FFE812"/>
<path d="M15.282 13.7956C14.8756 13.7956 14.5448 13.4852 14.5448 13.1043V7.98199C14.5448 7.56592 14.8974 7.22778 15.3307 7.22778C15.764 7.22778 16.1166 7.56592 16.1166 7.98199V12.4129H17.7512C18.1576 12.4129 18.4884 12.7234 18.4884 13.1043C18.4884 13.4852 18.1576 13.7956 17.7512 13.7956H15.282Z" fill="#FFE812"/>
<path d="M19.5551 13.8962C19.1308 13.8962 18.7859 13.5581 18.7859 13.142V7.98199C18.7859 7.56592 19.1308 7.22778 19.5551 7.22778C19.9795 7.22778 20.3244 7.56592 20.3244 7.98199V9.60352L22.4705 7.4993C22.5808 7.39119 22.732 7.33086 22.8974 7.33086C23.0897 7.33086 23.282 7.41256 23.4269 7.55335C23.5615 7.68533 23.6423 7.85503 23.6526 8.03101C23.6641 8.20825 23.6038 8.37166 23.4833 8.48982L21.7308 10.2094L23.6244 12.6694C23.7487 12.8303 23.8013 13.0289 23.7718 13.2287C23.7436 13.4286 23.6372 13.6046 23.4731 13.7265C23.3385 13.8258 23.1782 13.8786 23.0102 13.8786C22.7667 13.8786 22.5423 13.7692 22.3961 13.5794L20.5923 11.2364L20.3256 11.4978V13.1433C20.3243 13.5581 19.9795 13.8962 19.5551 13.8962Z" fill="#FFE812"/>
</g>
<defs>
<clipPath id="clip0_40_3">
<rect width="26.6667" height="24.127" fill="white" transform="translate(0.666626)"/>
</clipPath>
</defs>
</svg>
