<svg width="36" height="23" viewBox="0 0 36 23" fill="none" xmlns="http://www.w3.org/2000/svg">
<path d="M21.1891 10.4117H10.885L10.8957 13.3588H17.844C17.0266 16.9513 14.4882 19.1562 11.0786 19.1562C6.61487 19.1562 2.99014 15.5315 2.99014 11.0678C2.99014 6.60412 6.60412 2.97938 11.0786 2.97938C13.1975 2.97938 15.1335 3.79683 16.5748 5.14131L18.8551 3.17299C16.8545 1.21542 14.1117 0 11.0786 0C4.95846 0 0 4.95846 0 11.0786C0 17.1987 4.95846 22.1571 11.0786 22.1571C16.9513 22.1571 21.1999 17.6719 21.1999 11.5518L21.1891 10.4117Z" fill="white"/>
<path d="M35.9999 10.5409H31.7406V6.28162H29.0301V10.5409H24.7815V13.2514H29.0301V17.5108H31.7406V13.2514H35.9999V10.5409Z" fill="white"/>
</svg>
