<svg width="34" height="28" viewBox="0 0 34 28" fill="none" xmlns="http://www.w3.org/2000/svg">
<path d="M0 24.4913C3.07991 26.4684 6.75158 27.625 10.6922 27.625C23.644 27.625 30.947 16.6907 30.5166 6.88608C31.875 5.90427 33.0585 4.68038 34 3.28165C32.7492 3.83307 31.4043 4.20965 29.9921 4.38449C31.4312 3.52373 32.534 2.1519 33.0585 0.524525C31.7136 1.31804 30.2207 1.90981 28.6337 2.21915C27.3426 0.84731 25.5403 0 23.5229 0C19.0174 0 15.7089 4.1962 16.731 8.56725C10.9478 8.27136 5.81013 5.50079 2.36709 1.27769C0.537975 4.41139 1.42563 8.51345 4.51899 10.5847C3.37579 10.5443 2.29984 10.235 1.35839 9.71044C1.27769 12.9383 3.60443 15.9644 6.95332 16.6369C5.97152 16.9059 4.89557 16.9597 3.80617 16.7579C4.69383 19.5285 7.26266 21.5459 10.3157 21.5997C7.39715 23.8995 3.69858 24.9217 0 24.4913Z" fill="white"/>
</svg>
