<svg width="40" height="37" viewBox="0 0 40 37" fill="none" xmlns="http://www.w3.org/2000/svg">
<g clip-path="url(#clip0_111_168)">
<path d="M20.0002 0.00012207C8.95409 0.00012207 0.000244141 6.92183 0.000244141 15.4613C0.000244141 20.9821 3.74447 25.8259 9.37524 28.5618C9.06948 29.597 7.40601 35.2252 7.34063 35.6683C7.34063 35.6683 7.30024 36.0002 7.51947 36.1265C7.73871 36.2528 7.9964 36.1548 7.9964 36.1548C8.62525 36.068 15.2926 31.4768 16.4464 30.6793C17.6002 30.8395 18.7868 30.9225 19.9983 30.9225C31.0445 30.9225 39.9983 24.0008 39.9983 15.4613C40.0002 6.92183 31.0464 0.00012207 20.0002 0.00012207Z" fill="black"/>
<path d="M8.94274 20.8596C8.3062 20.8596 7.78889 20.375 7.78889 19.7792V13.0573H5.98889C5.36389 13.0573 4.8562 12.5595 4.8562 11.9486C4.8562 11.3377 5.36389 10.84 5.98889 10.84H11.8966C12.5216 10.84 13.0293 11.3377 13.0293 11.9486C13.0293 12.5595 12.5216 13.0573 11.8966 13.0573H10.0966V19.7773C10.0966 20.3731 9.57928 20.8596 8.94274 20.8596Z" fill="#FFE812"/>
<path d="M19.0598 20.8444C18.5791 20.8444 18.2098 20.6521 18.1002 20.3448L17.5291 18.8778H14.0098L13.4387 20.3448C13.3291 20.6521 12.9598 20.8444 12.4791 20.8444C12.2252 20.8444 11.9714 20.7897 11.7464 20.6879C11.4291 20.5446 11.1233 20.1487 11.4733 19.0815L14.231 11.958C14.4252 11.4169 15.0156 10.8588 15.7675 10.8418C16.5214 10.8588 17.1118 11.4169 17.306 11.9599L20.0656 19.0796C20.4175 20.1487 20.1118 20.5446 19.7925 20.6879C19.5675 20.7897 19.3137 20.8444 19.0598 20.8444ZM16.9214 16.8735L15.7695 13.6644L14.6175 16.8754H16.9214V16.8735Z" fill="#FFE812"/>
<path d="M21.9232 20.6936C21.3135 20.6936 20.8174 20.2279 20.8174 19.6566V11.9731C20.8174 11.349 21.3462 10.8418 21.9962 10.8418C22.6462 10.8418 23.1751 11.349 23.1751 11.9731V18.6195H25.627C26.2366 18.6195 26.7328 19.0852 26.7328 19.6566C26.7328 20.2279 26.2366 20.6936 25.627 20.6936H21.9232Z" fill="#FFE812"/>
<path d="M28.333 20.8444C27.6965 20.8444 27.1792 20.3372 27.1792 19.7131V11.9731C27.1792 11.349 27.6965 10.8418 28.333 10.8418C28.9696 10.8418 29.4869 11.349 29.4869 11.9731V14.4054L32.7061 11.2491C32.8715 11.0869 33.0984 10.9964 33.3465 10.9964C33.635 10.9964 33.9234 11.119 34.1407 11.3301C34.3427 11.5281 34.4638 11.7827 34.4792 12.0466C34.4965 12.3125 34.4061 12.5576 34.2254 12.7348L31.5965 15.3142L34.4369 19.0042C34.6234 19.2455 34.7023 19.5434 34.658 19.8432C34.6157 20.143 34.4561 20.407 34.21 20.5899C34.008 20.7388 33.7677 20.818 33.5157 20.818C33.1504 20.818 32.8138 20.654 32.5946 20.3693L29.8888 16.8547L29.4888 17.2469V19.715C29.4869 20.3372 28.9696 20.8444 28.333 20.8444Z" fill="#FFE812"/>
</g>
<defs>
<clipPath id="clip0_111_168">
<rect width="40" height="36.1905" fill="white" transform="translate(0.000244141 0.00012207)"/>
</clipPath>
</defs>
</svg>
