<svg width="34" height="34" viewBox="0 0 34 34" fill="none" xmlns="http://www.w3.org/2000/svg">
<path fill-rule="evenodd" clip-rule="evenodd" d="M33.9837 16.137C33.7557 7.18103 26.3793 0 17.3094 0C8.33716 0 1.02586 7.0182 0.635057 15.8439C0.635057 16.0881 0.618774 16.3324 0.618774 16.5766C0.618774 19.7031 1.49808 22.6341 3.01245 25.1255L0 34L9.24904 31.069C11.6427 32.3879 14.3946 33.137 17.3094 33.137C26.5259 33.137 34 25.728 34 16.5766C34 16.4301 34 16.2835 33.9837 16.137ZM17.3094 30.4828C14.4598 30.4828 11.8056 29.636 9.591 28.1705L4.20115 29.8966L5.94349 24.7184C4.26628 22.4224 3.27299 19.6054 3.27299 16.5603C3.27299 16.1044 3.28927 15.6485 3.33812 15.2088C4.02203 8.15805 10.0307 2.63793 17.2931 2.63793C24.6533 2.63793 30.7107 8.3046 31.2807 15.4693C31.3132 15.8276 31.3295 16.1858 31.3295 16.5603C31.3458 24.2462 25.0441 30.4828 17.3094 30.4828Z" fill="white"/>
<path fill-rule="evenodd" clip-rule="evenodd" d="M24.9625 19.9148C24.5554 19.7194 22.5363 18.7261 22.1617 18.5959C21.7872 18.4493 21.5104 18.4005 21.2336 18.7913C20.9568 19.1984 20.1751 20.1102 19.9309 20.3708C19.6866 20.6476 19.4587 20.6802 19.0353 20.4685C18.6282 20.2731 17.3092 19.8497 15.746 18.4493C14.541 17.3746 13.7106 16.0556 13.4663 15.6486C13.2546 15.2578 13.4663 15.0298 13.6617 14.8344C13.8571 14.6553 14.0688 14.3622 14.2805 14.1179C14.3294 14.0528 14.3782 13.9876 14.4271 13.9225C14.5248 13.776 14.5899 13.6294 14.6876 13.434C14.8341 13.1572 14.7527 12.9292 14.655 12.7338C14.5573 12.5384 13.7432 10.5193 13.3849 9.70507C13.043 8.8909 12.701 9.03745 12.4568 9.03745C12.2288 9.03745 11.952 9.00488 11.6751 9.00488C11.3983 9.00488 10.975 9.10258 10.6004 9.50967C10.2259 9.91676 9.16748 10.8938 9.16748 12.8966C9.16748 13.3689 9.2489 13.8411 9.37917 14.2807C9.78625 15.7137 10.6818 16.8861 10.8447 17.0978C11.0401 17.3583 13.678 21.592 17.8303 23.2367C21.9989 24.8488 21.9989 24.3114 22.7479 24.2463C23.497 24.1811 25.1742 23.2693 25.4999 22.3085C25.8418 21.3641 25.8418 20.5499 25.7441 20.3708C25.6301 20.2079 25.3533 20.1102 24.9625 19.9148Z" fill="white"/>
</svg>
