<svg width="66" height="78" viewBox="0 0 66 78" fill="none" xmlns="http://www.w3.org/2000/svg">
<path d="M33.2385 77.7565C15.177 77.7565 0.477051 63.0565 0.477051 44.995V6.31903C0.477051 3.05742 3.12086 0.413605 6.38247 0.413605C9.64408 0.413605 12.2879 3.05742 12.2879 6.31903V44.995C12.2879 56.5424 21.6821 65.9456 33.2385 65.9456C44.795 65.9456 54.1891 56.5515 54.1891 44.995C54.1891 33.5839 45.013 24.2715 33.6474 24.0535L33.6383 24.7803C33.5838 28.0419 30.8854 30.6675 27.642 30.5858C24.3804 30.5313 21.782 27.8511 21.8365 24.5895L21.9364 18.5932C21.9819 15.8222 23.9443 13.4601 26.6608 12.9058C28.8231 12.4607 31.0399 12.2426 33.2567 12.2426C51.3182 12.2426 66.0182 26.9426 66.0182 45.0041C66 63.0565 51.3 77.7565 33.2385 77.7565Z" fill="white"/>
</svg>
