<svg width="17" height="18" viewBox="0 0 17 18" fill="none" xmlns="http://www.w3.org/2000/svg">
<path fill-rule="evenodd" clip-rule="evenodd" d="M15.0676 16.778C15.4256 17.136 16.006 17.136 16.364 16.778C16.7219 16.4201 16.7219 15.8397 16.364 15.4817L9.88207 8.99979L16.3637 2.51812C16.7217 2.16013 16.7217 1.57973 16.3637 1.22175C16.0058 0.863772 15.4254 0.863772 15.0674 1.22175L8.58571 7.70343L2.10397 1.22169C1.74599 0.863711 1.16559 0.863711 0.807606 1.22169C0.449625 1.57967 0.449624 2.16007 0.807605 2.51805L7.28934 8.99979L0.807398 15.4817C0.449418 15.8397 0.449418 16.4201 0.807399 16.7781C1.16538 17.1361 1.74578 17.1361 2.10376 16.7781L8.58571 10.2962L15.0676 16.778Z" fill="#121212"/>
</svg>
