<svg width="16" height="15" viewBox="0 0 16 15" fill="none" xmlns="http://www.w3.org/2000/svg">
<path d="M4.36364 5.45455C3.76 5.45455 3.27273 5.94182 3.27273 6.54545C3.27273 7.14909 3.76 7.63636 4.36364 7.63636C4.96727 7.63636 5.45455 7.14909 5.45455 6.54545C5.45455 5.94182 4.96727 5.45455 4.36364 5.45455ZM8 5.45455C7.39636 5.45455 6.90909 5.94182 6.90909 6.54545C6.90909 7.14909 7.39636 7.63636 8 7.63636C8.60364 7.63636 9.09091 7.14909 9.09091 6.54545C9.09091 5.94182 8.60364 5.45455 8 5.45455ZM8 0C3.58182 0 0 2.93091 0 6.54545C0 8.32 0.865455 9.92364 2.26545 11.1018L1.45455 14.5455L5.75636 12.8255C6.46909 12.9964 7.22182 13.0909 8 13.0909C12.4182 13.0909 16 10.16 16 6.54545C16 2.93091 12.4182 0 8 0ZM8 12.3636C7.30545 12.3636 6.60727 12.28 5.92364 12.1164C5.86909 12.1018 5.81091 12.0982 5.75636 12.0982C5.66545 12.0982 5.57091 12.1164 5.48727 12.1491L2.48364 13.3491L2.97455 11.2691C3.03636 11.0036 2.94545 10.7236 2.73455 10.5455C1.44 9.45818 0.727273 8.03636 0.727273 6.54545C0.727273 3.33818 3.98909 0.727273 8 0.727273C12.0109 0.727273 15.2727 3.33818 15.2727 6.54545C15.2727 9.75273 12.0109 12.3636 8 12.3636ZM11.6364 5.45455C11.0327 5.45455 10.5455 5.94182 10.5455 6.54545C10.5455 7.14909 11.0327 7.63636 11.6364 7.63636C12.24 7.63636 12.7273 7.14909 12.7273 6.54545C12.7273 5.94182 12.24 5.45455 11.6364 5.45455Z" fill="#00CEA6"/>
</svg>
