<svg width="24" height="23" viewBox="0 0 24 23" fill="none" xmlns="http://www.w3.org/2000/svg">
<path d="M23.5755 3.3631H8.58052C8.34638 3.3631 8.15625 3.55323 8.15625 3.7879C8.15625 4.02203 8.34638 4.21217 8.58052 4.21217H23.5755C23.8099 4.21217 24 4.02203 24 3.7879C24 3.55323 23.8099 3.3631 23.5755 3.3631Z" fill="black"/>
<path d="M0.176308 2.36472C-0.0138257 2.50205 -0.0570257 2.76739 0.0803077 2.95725L1.63551 5.11059C1.79311 5.32925 2.02004 5.45272 2.26164 5.45272C2.26991 5.45272 2.27844 5.45245 2.28724 5.45219C2.53818 5.44339 2.76591 5.30179 2.91258 5.06445L5.64085 0.647385C5.76378 0.447918 5.70191 0.186585 5.50244 0.0633844C5.30298 -0.0598156 5.04138 0.00205105 4.91844 0.201518L2.25284 4.51565L0.769108 2.46099C0.631508 2.27032 0.366441 2.22765 0.176308 2.36472Z" fill="black"/>
<path d="M23.5755 11.7863H8.58052C8.34638 11.7863 8.15625 11.9762 8.15625 12.2108C8.15625 12.445 8.34638 12.6354 8.58052 12.6354H23.5755C23.8099 12.6354 24 12.445 24 12.2108C24 11.9762 23.8099 11.7863 23.5755 11.7863Z" fill="black"/>
<path d="M0.0802913 11.38L1.63576 13.5333C1.79336 13.752 2.02003 13.8754 2.26163 13.8754C2.26989 13.8754 2.27843 13.8749 2.28696 13.8749C2.53789 13.8661 2.76589 13.7248 2.91283 13.4872L5.64083 9.07035C5.76376 8.87115 5.7019 8.60928 5.50243 8.48635C5.30296 8.36341 5.04136 8.42528 4.91843 8.62475L2.25283 12.9384L0.769092 10.8837C0.631758 10.6938 0.366691 10.6509 0.176558 10.788C-0.0138421 10.925 -0.0570421 11.1901 0.0802913 11.38Z" fill="black"/>
<path d="M23.5755 20.2093H8.58052C8.34638 20.2093 8.15625 20.3997 8.15625 20.6338C8.15625 20.8685 8.34638 21.0584 8.58052 21.0584H23.5755C23.8099 21.0584 24 20.8685 24 20.6338C24 20.3994 23.8099 20.2093 23.5755 20.2093Z" fill="black"/>
<path d="M0.0803077 19.8028L1.63578 21.9561C1.79338 22.1748 2.02004 22.2983 2.26164 22.2983C2.26991 22.2983 2.27871 22.2983 2.28724 22.298C2.53818 22.2889 2.76591 22.1476 2.91258 21.9105L5.64085 17.4932C5.76378 17.294 5.70191 17.0321 5.50244 16.9092C5.30298 16.7863 5.04138 16.8481 4.91844 17.0476L2.25284 21.3612L0.768842 19.3063C0.631508 19.1164 0.366441 19.0735 0.176308 19.2108C-0.0138257 19.3481 -0.0570257 19.6129 0.0803077 19.8028Z" fill="black"/>
</svg>
