<svg width="16" height="16" viewBox="0 0 16 16" fill="none" xmlns="http://www.w3.org/2000/svg">
<g clip-path="url(#clip0_49_298)">
<rect width="16" height="16" fill="white"/>
<path fill-rule="evenodd" clip-rule="evenodd" d="M0 8C0 3.58898 3.58898 0 8 0C12.4112 0 16 3.58898 16 8C16 12.411 12.411 16 8 16C3.58898 16 0 12.4112 0 8ZM0.566185 8.00001C0.566185 12.099 3.90094 15.434 8.00014 15.434C12.0993 15.434 15.4341 12.0992 15.4341 8.00001C15.4341 3.90081 12.0993 0.56605 8.00014 0.56605C3.90094 0.56605 0.566185 3.90098 0.566185 8.00001Z" fill="black"/>
<path d="M8.32221 7.92196C8.30621 7.90418 8.28435 7.8512 8.2831 7.82863V2.85529C8.2831 2.69903 8.15635 2.57245 8.00008 2.57245C7.84381 2.57245 7.71706 2.69903 7.71706 2.85529V7.82845C7.71706 7.99858 7.80115 8.20143 7.92115 8.32143L10.8008 11.2009C10.8563 11.2562 10.9288 11.2841 11.001 11.2841C11.0731 11.2841 11.1457 11.2562 11.2011 11.2009C11.3115 11.0903 11.3115 10.9111 11.2011 10.8005L8.32221 7.92196Z" fill="black"/>
</g>
<defs>
<clipPath id="clip0_49_298">
<rect width="16" height="16" fill="white"/>
</clipPath>
</defs>
</svg>
