<svg width="16" height="16" viewBox="0 0 16 16" fill="none" xmlns="http://www.w3.org/2000/svg">
<g clip-path="url(#clip0_49_265)">
<rect width="16" height="16" fill="white"/>
<path d="M3.84999 7.59448H4.43292C4.74545 7.59448 4.99896 7.34097 4.99896 7.02844V6.44551C4.99896 6.13297 4.74545 5.87964 4.43292 5.87964H3.84999C3.53745 5.87964 3.28412 6.13297 3.28412 6.44551V7.02844C3.2843 7.34097 3.53745 7.59448 3.84999 7.59448Z" fill="#121212"/>
<path d="M7.70831 7.59448H8.2916C8.60413 7.59448 8.85746 7.34097 8.85746 7.02844V6.44551C8.85746 6.13297 8.60413 5.87964 8.2916 5.87964H7.70831C7.39577 5.87964 7.14244 6.13297 7.14244 6.44551V7.02844C7.14262 7.34097 7.39595 7.59448 7.70831 7.59448Z" fill="#121212"/>
<path d="M11.567 7.59448H12.1499C12.4624 7.59448 12.7158 7.34097 12.7158 7.02844V6.44551C12.7158 6.13297 12.4624 5.87964 12.1499 5.87964H11.567C11.2544 5.87964 11.0009 6.13297 11.0009 6.44551V7.02844C11.0011 7.34097 11.2546 7.59448 11.567 7.59448Z" fill="#121212"/>
<path d="M3.84999 10.5101H4.43292C4.74545 10.5101 4.99896 10.2566 4.99896 9.94402V9.36091C4.99896 9.04838 4.74545 8.79504 4.43292 8.79504H3.84999C3.53745 8.79504 3.28412 9.04838 3.28412 9.36091V9.94402C3.2843 10.2566 3.53745 10.5101 3.84999 10.5101Z" fill="#121212"/>
<path d="M7.70831 10.5101H8.2916C8.60413 10.5101 8.85746 10.2566 8.85746 9.94402V9.36091C8.85746 9.04838 8.60413 8.79504 8.2916 8.79504H7.70831C7.39577 8.79504 7.14244 9.04838 7.14244 9.36091V9.94402C7.14262 10.2566 7.39595 10.5101 7.70831 10.5101Z" fill="#121212"/>
<path d="M11.567 10.5101H12.1499C12.4624 10.5101 12.7158 10.2566 12.7158 9.94402V9.36091C12.7158 9.04838 12.4624 8.79504 12.1499 8.79504H11.567C11.2544 8.79504 11.0009 9.04838 11.0009 9.36091V9.94402C11.0011 10.2566 11.2546 10.5101 11.567 10.5101Z" fill="#121212"/>
<path d="M3.84999 13.4253H4.43292C4.74545 13.4253 4.99896 13.1718 4.99896 12.8592V12.276C4.99896 11.9634 4.74545 11.7103 4.43292 11.7103H3.84999C3.53745 11.7103 3.28412 11.9634 3.28412 12.276V12.8592C3.2843 13.1718 3.53745 13.4253 3.84999 13.4253Z" fill="#121212"/>
<path d="M7.70831 13.4253H8.2916C8.60413 13.4253 8.85746 13.1718 8.85746 12.8592V12.276C8.85746 11.9634 8.60413 11.7103 8.2916 11.7103H7.70831C7.39577 11.7103 7.14244 11.9634 7.14244 12.276V12.8592C7.14262 13.1718 7.39595 13.4253 7.70831 13.4253Z" fill="#121212"/>
<path fill-rule="evenodd" clip-rule="evenodd" d="M14.0021 0.666687H1.99787C0.896356 0.666687 0 1.56286 0 2.66455V13.6395C0 14.7412 0.896356 15.6374 1.99787 15.6374H14.002C15.1036 15.6374 16 14.7412 16 13.6395V2.66455C16 1.56286 15.1036 0.666687 14.0021 0.666687ZM15.434 13.6395C15.434 14.429 14.7918 15.0715 14.002 15.0715H1.99787C1.20836 15.0715 0.565871 14.4292 0.565871 13.6395V4.23327H15.434V13.6395ZM0.566028 3.6674H15.4339H15.4341V2.66438C15.4341 1.87451 14.7918 1.2322 14.0021 1.2322H1.99803C1.20834 1.2322 0.566028 1.87469 0.566028 2.66438V3.6674Z" fill="#121212"/>
</g>
<defs>
<clipPath id="clip0_49_265">
<rect width="16" height="16" fill="white"/>
</clipPath>
</defs>
</svg>
