<svg width="24" height="24" viewBox="0 0 24 24" fill="none" xmlns="http://www.w3.org/2000/svg">
<circle cx="12" cy="12" r="11.5" stroke="#121212"/>
<path d="M12.2627 18.7222V17.7334C14.3281 17.5649 15.5293 16.4663 15.5293 14.7305C15.5293 13.2656 14.7017 12.3721 12.8926 11.8887L12.2627 11.7349V8.15332C13.3394 8.28516 14.0645 8.97363 14.0938 9.88916H15.3389C15.2876 8.2998 14.0791 7.17188 12.2627 7.01807V6H11.2812V7.02539C9.41357 7.2085 8.25635 8.30713 8.25635 9.90381C8.25635 11.2515 9.12061 12.2183 10.6953 12.6357L11.2812 12.7969V16.6055C10.0801 16.459 9.33301 15.8071 9.25244 14.8257H8C8.00732 16.4443 9.29639 17.5942 11.2812 17.7407V18.7222H12.2627ZM14.2622 14.833C14.2622 15.9097 13.5371 16.5615 12.2627 16.6274V12.9946C13.6396 13.2876 14.2622 13.8589 14.2622 14.833ZM9.51611 9.83057C9.51611 8.91504 10.2559 8.21191 11.2812 8.15332V11.5225C10.124 11.2808 9.51611 10.6948 9.51611 9.83057Z" fill="black"/>
</svg>
