<svg width="21" height="24" viewBox="0 0 21 24" fill="none" xmlns="http://www.w3.org/2000/svg">
<path d="M10.0708 20.7845C10.3052 20.7845 10.4953 20.5941 10.4953 20.3597V10.0709C10.4953 9.83628 10.3052 9.64615 10.0708 9.64615C9.83637 9.64615 9.64624 9.83628 9.64624 10.0709V20.36C9.64624 20.5944 9.83637 20.7845 10.0708 20.7845Z" fill="black"/>
<path fill-rule="evenodd" clip-rule="evenodd" d="M6.8552 0H13.2861C14.2293 0 14.9971 0.7672 14.9971 1.71067V3.21547H18.4304C19.3736 3.21547 20.1413 3.98293 20.1413 4.9264V5.56933C20.1413 6.51227 19.3736 7.28 18.4304 7.28H18.1899L17.4437 21.1323C17.3587 22.7133 16.0016 24 14.4181 24H5.72347C4.13973 24 2.7824 22.7133 2.69733 21.1323L1.95147 7.28H1.71067C0.7672 7.28 0 6.51227 0 5.56933V4.9264C0 3.98293 0.7672 3.21547 1.71067 3.21547H5.14453V1.71067C5.14453 0.7672 5.91173 0 6.8552 0ZM6.8554 0.849108C6.3802 0.849108 5.9938 1.23551 5.9938 1.71071V3.21551H14.1474V1.71071C14.1474 1.23551 13.7613 0.849108 13.2861 0.849108H6.8554ZM16.5959 21.0864C16.5348 22.2251 15.5575 23.151 14.4178 23.151H5.7231C4.5831 23.151 3.60603 22.2248 3.54497 21.0864L2.80123 7.28004H17.3394L16.5959 21.0864ZM19.2923 4.92615C19.2923 4.45068 18.9059 4.06455 18.4307 4.06455H1.71066C1.23546 4.06455 0.849057 4.45068 0.849057 4.92615V5.56908C0.849057 6.04428 1.23546 6.43041 1.71066 6.43041H18.4307C18.9059 6.43041 19.2923 6.04428 19.2923 5.56908V4.92615Z" fill="black"/>
<path d="M6.57573 20.7845C6.57973 20.7845 6.58346 20.784 6.58719 20.784C6.82159 20.7781 7.00639 20.5824 7.00026 20.3483L6.72319 10.0589C6.71706 9.82854 6.52826 9.64587 6.29919 9.64587C6.29493 9.64587 6.29119 9.64587 6.28773 9.64587C6.05333 9.65227 5.86853 9.84747 5.87466 10.0816L6.15173 20.3709C6.15786 20.6019 6.34666 20.7845 6.57573 20.7845Z" fill="black"/>
<path d="M13.5541 20.784C13.5581 20.784 13.5616 20.7845 13.5658 20.7845C13.7949 20.7845 13.9834 20.6016 13.9898 20.3709L14.2669 10.0816C14.2733 9.84747 14.0885 9.65254 13.8541 9.64587C13.8501 9.64587 13.8464 9.64587 13.8424 9.64587C13.6133 9.64587 13.4245 9.82854 13.4181 10.0589L13.1413 20.3483C13.1346 20.5827 13.3197 20.7781 13.5541 20.784Z" fill="black"/>
</svg>
