<svg width="12" height="12" viewBox="0 0 12 12" fill="none" xmlns="http://www.w3.org/2000/svg">
<path d="M0.5 3.55824C0.5 3.24709 0.737937 3 1.03993 3C1.1772 3 1.32363 3.06406 1.42429 3.17388L6 7.88686L10.5757 3.17388C10.6672 3.07321 10.8136 3.00915 10.9601 3.00915C11.2529 3.00915 11.5 3.25624 11.5 3.56739C11.5 3.71381 11.4451 3.85108 11.3536 3.95175L6.37521 9.05824C6.27454 9.1589 6.13727 9.22296 5.99085 9.22296C5.84443 9.22296 5.70715 9.1589 5.60649 9.04909L0.655574 3.95175C0.554908 3.84193 0.5 3.70466 0.5 3.55824Z" fill="#333333"/>
</svg>
