<svg width="18" height="18" viewBox="0 0 18 18" fill="none" xmlns="http://www.w3.org/2000/svg">
<path d="M17.25 12.6626C17.25 13.1294 16.8931 13.5 16.4401 13.5C16.2342 13.5 16.0146 13.4039 15.8636 13.2392L9 6.16972L2.13644 13.2392C1.99917 13.3902 1.77953 13.4863 1.5599 13.4863C1.12063 13.4863 0.75 13.1156 0.75 12.6489C0.75 12.4293 0.832361 12.2234 0.969633 12.0724L8.43719 4.41265C8.58819 4.26165 8.79409 4.16556 9.01373 4.16556C9.23336 4.16556 9.43927 4.26165 9.59027 4.42637L17.0166 12.0724C17.1676 12.2371 17.25 12.443 17.25 12.6626Z" fill="#00CEA6"/>
</svg>
