<svg width="128" height="128" viewBox="0 0 128 128" fill="none" xmlns="http://www.w3.org/2000/svg">
<path d="M105.048 18.7036C104.129 19.6915 102.429 22.5861 101.832 24.1942C101.304 25.5956 101.465 26.3308 102.315 26.6064C102.82 26.7673 103.923 26.2159 103.923 25.7794C103.923 25.274 105.784 21.5983 106.588 20.4726C107.323 19.4847 107.415 19.232 107.231 18.7266C106.909 17.7617 105.921 17.7617 105.048 18.7036Z" fill="black"/>
<path d="M110.539 25.6875C105.784 28.72 105.255 29.2484 106.105 30.1673C106.335 30.42 106.725 30.6268 106.978 30.6268C107.369 30.6268 114.881 26.0321 115.938 25.1591C116.397 24.7686 116.466 23.6658 116.053 23.3442C115.272 22.7469 114.904 22.8847 110.539 25.6875Z" fill="black"/>
<path d="M21.0578 25.4577C18.7834 26.1469 17.1523 27.5483 16.0037 29.7767C15.4523 30.8105 15.3604 31.3159 15.2915 33.5214L15.1996 36.0485L14.1198 36.5309C12.7414 37.1742 11.6387 38.3458 10.2144 40.7121C8.813 43.0094 8.42245 44.227 8.10082 47.1676C7.87109 49.1433 7.96298 50.6595 9.13463 63.7084C9.8468 71.6113 10.9036 83.3966 11.4549 89.8981C12.0293 96.3995 12.6266 102.281 12.8104 102.947C13.7063 106.232 15.682 107.863 19.7713 108.644C21.77 109.012 25.7444 109.265 36.7256 109.701C47.4083 110.115 106.105 110.092 107.576 109.678C108.931 109.288 110.126 108.093 110.126 107.151C110.126 105.681 108.862 105.015 105.531 104.716L103.785 104.578L104.635 103.682C106.289 101.936 106.22 102.442 108.747 76.7573C110.217 61.8705 111.022 52.8879 110.93 52.2217C110.493 49.3271 108.127 46.9149 105.324 46.5013L104.267 46.3635L104.153 39.2418C104.038 32.166 104.038 32.12 103.44 30.8565C102.636 29.1335 101.189 27.7321 99.374 26.8821L97.8348 26.1699L87.1522 25.9861C66.66 25.6645 26.5944 25.1131 24.32 25.1361C23.0565 25.1361 21.5862 25.274 21.0578 25.4577ZM58.4355 28.3294C101.12 28.9267 97.4213 28.8348 98.524 29.4092C99.0294 29.6848 99.7646 30.2362 100.178 30.6727C101.579 32.12 101.625 32.4416 101.625 39.8161V46.4784L88.0252 46.4324L74.402 46.3635L73.2533 45.8121C72.4952 45.4446 71.4614 44.5716 70.2668 43.2851C65.2356 37.8634 63.9721 36.9444 60.9855 36.3701C60.2044 36.2323 52.0719 36.1404 38.7703 36.1404H17.7726V34.2336C17.7956 31.1781 18.7375 29.4092 20.851 28.4213C22.2984 27.7551 18.4159 27.7551 58.4355 28.3294ZM62.6856 39.4945C63.7883 40.0688 64.6842 40.8729 67.1883 43.6297C68.8884 45.5135 70.7492 47.3284 71.3236 47.696C73.4141 49.0054 73.2993 49.0054 89.2428 49.0054C99.0065 49.0054 104.29 49.0973 105.071 49.2582C106.496 49.5568 107.897 50.7974 108.242 52.0379C108.426 52.7042 107.989 57.8732 106.174 76.3897C103.647 102.419 103.808 101.293 102.016 102.487L101.074 103.108L60.8247 103.177L20.5983 103.223L19.4726 102.487C18.6456 101.913 18.2551 101.454 17.9564 100.696C17.428 99.2942 12.3968 42.7567 12.7185 41.654C13.0171 40.6202 13.9361 39.4945 14.832 39.058C15.5212 38.7134 17.6118 38.6674 38.4487 38.7363L61.3072 38.7823L62.6856 39.4945Z" fill="black"/>
<path d="M73.4141 56.8393C72.8627 57.0461 72.4492 57.8502 72.61 58.4475C72.6789 58.6542 73.8506 59.9407 75.229 61.3191L77.7331 63.8003L75.3209 66.2584C72.7708 68.8314 72.4722 69.4517 73.3222 70.2098C74.1722 70.9909 74.7236 70.6923 77.2506 68.1882L79.6858 65.799L82.2359 68.349C84.9238 70.9909 85.59 71.3585 86.3941 70.5315C87.2211 69.7274 86.8535 69.0612 84.2116 66.3733L81.6615 63.8232L83.7062 61.7327C85.8886 59.5272 86.1873 58.861 85.3603 58.1259C84.5332 57.3677 83.9589 57.6434 81.7764 59.8029L79.6629 61.8705L77.1817 59.3664C75.8033 57.988 74.5168 56.8164 74.3101 56.7474C74.1033 56.7015 73.6898 56.7474 73.4141 56.8393Z" fill="black"/>
<path d="M39.1608 61.2963L36.2432 64.1679L33.7391 61.6409C32.3377 60.2395 31.0282 59.0449 30.7985 58.976C30.1093 58.7462 29.2593 59.4814 29.2593 60.3084C29.2593 60.9057 29.6498 61.4111 31.7864 63.5706L34.2905 66.1207L31.7404 68.6707C29.8107 70.6235 29.2133 71.3816 29.2133 71.8411C29.1904 72.6681 29.6498 73.1276 30.4769 73.1276C31.0512 73.1276 31.6026 72.6911 33.7161 70.6005L36.2662 68.0964L38.4716 70.2559C40.2865 72.0478 40.7919 72.4384 41.3663 72.4384C42.1933 72.4384 42.6528 71.9789 42.6528 71.1519C42.6528 70.6924 42.1014 70.0032 40.4244 68.3491L38.2189 66.1437L41.0906 63.226C44.1001 60.1936 44.3528 59.7341 43.5028 58.8841C42.6528 58.0341 42.1933 58.2868 39.1608 61.2963Z" fill="black"/>
<path d="M55.1273 81.7425C52.8989 82.2019 50.7853 82.9371 48.7637 83.9479C45.5934 85.5331 41.4352 89.025 41.4352 90.1278C41.4352 90.7251 42.2163 91.5062 42.8136 91.5062C43.0663 91.5062 44.146 90.7021 45.2488 89.6913C53.4962 82.133 66.1086 82.1101 74.3331 89.6453C75.8493 91.0237 76.6534 91.1616 77.2507 90.0818C77.7101 89.2777 77.4345 88.7723 75.5506 87.1412C72.8857 84.8669 69.3708 83.029 65.787 82.0871C63.2829 81.4209 57.5625 81.2371 55.1273 81.7425Z" fill="black"/>
<path d="M112.997 33.2687C111.114 33.4295 109.437 33.5903 109.276 33.5903C108.816 33.6363 108.288 34.3025 108.288 34.8539C108.288 35.1525 108.495 35.566 108.747 35.7958C109.161 36.1634 109.414 36.1634 114.192 35.8188C118.695 35.4742 119.246 35.3823 119.614 34.9458C120.096 34.3714 120.096 34.0958 119.637 33.4295C119.223 32.8322 118.488 32.8092 112.997 33.2687Z" fill="black"/>
</svg>
