<svg width="16" height="16" viewBox="0 0 16 16" fill="none" xmlns="http://www.w3.org/2000/svg">
<path fill-rule="evenodd" clip-rule="evenodd" d="M15.3 8C15.3 12.0317 12.0317 15.3 8 15.3C3.96832 15.3 0.7 12.0317 0.7 8C0.7 3.96832 3.96832 0.7 8 0.7C12.0317 0.7 15.3 3.96832 15.3 8ZM16 8C16 12.4183 12.4183 16 8 16C3.58172 16 0 12.4183 0 8C0 3.58172 3.58172 0 8 0C12.4183 0 16 3.58172 16 8ZM8.42164 9.12523C8.5448 9.25401 8.69336 9.40936 8.90903 9.59263C9.68357 10.2508 9.27266 10.909 8.88721 11.4108C8.50175 11.909 8.15994 12.4763 7.97812 13.5017C7.7963 14.5272 7.31994 13.7999 7.15994 13.549C7.14245 13.5216 7.12387 13.4944 7.10475 13.4665C6.94891 13.239 6.75658 12.9582 6.81812 12.0254C6.85202 11.5115 6.69423 11.3977 6.49505 11.2541C6.28825 11.1049 6.03684 10.9236 5.90903 10.229C5.66175 8.86536 6.27266 8.63626 7.25085 8.63626C7.95404 8.63626 8.1025 8.79151 8.42164 9.12523ZM11.9999 10.2399C11.7818 10.0472 11.7708 9.69445 12.0327 9.53445C12.2945 9.37445 12.9199 9.79626 12.7854 10.2399C12.6472 10.6835 12.2145 10.4326 11.9999 10.2399ZM7.68357 5.88354C7.1163 6.13445 6.2763 6.6799 6.22903 7.20354C6.18175 7.72717 5.73448 8.0399 5.5963 7.49445C5.45812 6.94899 5.29812 6.92717 4.73085 7.22172C4.15994 7.5199 4.66175 8.08717 5.1163 8.54172C5.57085 8.99626 5.18539 8.97445 5.18539 8.97445C3.14175 7.99626 2.79994 7.1999 2.79994 7.1999C2.79994 7.1999 2.13448 6.5599 2.02539 5.33808C2.43266 4.42899 3.0363 3.62536 3.78903 2.99263C4.15994 3.40717 4.72357 3.82899 4.93448 3.90536C5.07455 3.95526 5.19751 3.8227 5.33429 3.67523C5.50645 3.48962 5.7005 3.2804 5.97812 3.38172C6.23828 3.47667 6.32589 3.43476 6.44084 3.37978C6.54601 3.32948 6.67408 3.26822 6.97812 3.29081C7.61448 3.33808 7.25085 3.99626 6.88721 4.15626C6.78834 4.19977 6.65077 4.218 6.51746 4.23567C6.16045 4.28299 5.83403 4.32625 6.36357 4.8399C6.74524 5.21012 6.82045 5.06057 6.93399 4.83483C7.03679 4.63042 7.17102 4.36354 7.59266 4.36354C8.4763 4.36354 8.6363 4.68354 8.70539 5.10899C8.76072 5.4555 8.43598 5.58283 8.01312 5.74864C7.9079 5.7899 7.7966 5.83354 7.68357 5.88354ZM14.4945 7.20354C14.5018 7.26899 14.509 7.33081 14.5163 7.39263C14.5345 7.59263 14.5454 7.79626 14.5454 7.9999C14.5454 8.1999 14.5345 8.3999 14.5199 8.5999C14.5163 8.63081 14.5127 8.66264 14.509 8.69446C14.5054 8.72627 14.5018 8.75809 14.4981 8.78899L14.4981 8.78904C14.4799 8.92357 14.4618 9.0581 14.4363 9.18899C14.4296 9.22059 14.4238 9.25219 14.4179 9.28344C14.411 9.32052 14.4042 9.35711 14.3963 9.39263C14.3563 9.57081 14.3127 9.74536 14.2618 9.91627C13.7745 9.69808 13.1963 9.37445 13.0472 9.02536C12.9234 8.73653 12.706 8.51288 12.4779 8.27824C12.2035 7.9959 11.9135 7.69765 11.7527 7.25081C11.4374 6.37338 11.597 6.07878 11.7736 5.75273C11.87 5.57476 11.9715 5.38742 12.0036 5.09081C12.0472 4.69445 11.7527 4.61081 11.3672 4.77081C10.469 5.14172 10.1636 4.99626 9.98175 4.33808C9.79994 3.6799 9.98175 3.49808 9.98175 3.49808C9.36721 3.56717 9.34175 2.8399 9.66175 2.65808C9.8355 2.55963 9.9908 2.29975 10.1405 2.04923C10.1788 1.98516 10.2167 1.92171 10.2545 1.86172C10.8727 2.09081 11.4508 2.41081 11.9672 2.80354C11.9708 2.80536 11.9736 2.80808 11.9763 2.81081C11.979 2.81354 11.9818 2.81626 11.9854 2.81808C12.1054 2.90899 12.2218 3.00354 12.3345 3.09808C12.3436 3.10717 12.3536 3.11626 12.3636 3.12536C12.3736 3.13445 12.3836 3.14354 12.3927 3.15263C12.709 3.4399 12.9963 3.75626 13.2508 4.09808L13.2509 4.0981C13.2872 4.14537 13.3236 4.19263 13.3563 4.2399C13.4181 4.32717 13.4763 4.41808 13.5345 4.50899C13.5689 4.562 13.6015 4.61695 13.6335 4.67101C13.6454 4.69111 13.6572 4.7111 13.669 4.73081C13.7199 4.81445 13.7672 4.89808 13.8108 4.98536C13.8509 5.06266 13.8865 5.13996 13.9229 5.21903C13.9327 5.24039 13.9426 5.26188 13.9527 5.28354C13.962 5.30334 13.9717 5.32315 13.9814 5.34304C14.0056 5.39254 14.0301 5.44257 14.0508 5.49445C14.1199 5.66172 14.1854 5.83626 14.2399 6.01081C14.249 6.0399 14.2572 6.0699 14.2654 6.0999C14.2736 6.1299 14.2818 6.1599 14.2908 6.18899L14.2909 6.18902C14.3272 6.31992 14.3636 6.45082 14.3927 6.58536C14.3999 6.6199 14.4063 6.65445 14.4127 6.68899C14.419 6.72354 14.4254 6.75808 14.4327 6.79263C14.4581 6.92717 14.4763 7.06536 14.4945 7.20354Z" fill="#121212"/>
</svg>
