<svg width="16" height="14" viewBox="0 0 16 14" fill="none" xmlns="http://www.w3.org/2000/svg">
<path fill-rule="evenodd" clip-rule="evenodd" d="M7.52262 13.6425C7.40593 13.5702 6.41301 12.9545 5.83556 12.5482C1.38172 9.41768 -0.717695 5.7793 0.219518 2.81632C0.752301 1.13176 2.23549 0 3.91004 0C4.97433 0 6.04841 0.411454 6.85642 1.12921C7.47541 1.67923 7.89197 2.55429 8.00032 2.79716C8.11931 2.53003 8.53289 1.67178 9.14379 1.12921C9.95159 0.411667 11.0252 0 12.0897 0C13.7645 0 15.2477 1.13176 15.7805 2.81653C16.7177 5.77951 14.6183 9.41768 10.1644 12.5482C9.58733 12.9541 8.59554 13.569 8.47729 13.6423C8.47233 13.6454 8.46891 13.6475 8.46712 13.6487C8.33812 13.7289 8.1721 13.773 8.00011 13.773C7.82854 13.773 7.6623 13.7289 7.53246 13.6487C7.53071 13.6476 7.5274 13.6455 7.52262 13.6425ZM3.91002 0.677306C2.53197 0.677306 1.30847 1.61899 0.865298 3.02044C0.0219558 5.68734 2.02559 9.04198 6.22548 11.9939C6.7747 12.3802 7.75021 12.9861 7.87546 13.064C7.88356 13.069 7.88811 13.0718 7.88875 13.0722C7.9028 13.0807 7.94218 13.0956 8.00029 13.0956C8.0584 13.0956 8.09735 13.0812 8.11119 13.0722C8.11161 13.072 8.11366 13.0707 8.11722 13.0685C8.20488 13.0141 9.21324 12.3888 9.77488 11.9939C13.9748 9.04176 15.9784 5.68755 15.1349 3.02066C14.6917 1.61899 13.468 0.677306 12.0899 0.677306C11.1891 0.677306 10.2794 1.02661 9.59396 1.63559C9.01367 2.15056 8.6181 3.07299 8.59871 3.1182C8.59832 3.11911 8.59808 3.11966 8.59799 3.11985C8.43239 3.58665 8.15206 3.65902 8.00008 3.65902C7.8481 3.65902 7.56776 3.58686 7.39556 3.10346C7.39556 3.10346 7.39533 3.10293 7.39488 3.10189C7.37633 3.059 6.98187 2.14662 6.40662 1.63559C5.7208 1.02661 4.81062 0.677306 3.91002 0.677306Z" fill="white"/>
</svg>
