<svg width="22" height="20" viewBox="0 0 22 20" fill="none" xmlns="http://www.w3.org/2000/svg">
<path d="M21.5 17H11.95C11.72 15.86 10.71 15 9.5 15C8.29 15 7.28 15.86 7.05 17H0.5C0.225 17 0 17.225 0 17.5C0 17.775 0.225 18 0.5 18H7.05C7.28 19.14 8.29 20 9.5 20C10.71 20 11.72 19.14 11.95 18H21.5C21.775 18 22 17.775 22 17.5C22 17.225 21.775 17 21.5 17ZM9.5 19C8.67 19 8 18.33 8 17.5C8 16.67 8.67 16 9.5 16C10.33 16 11 16.67 11 17.5C11 18.33 10.33 19 9.5 19ZM0.5 3H3.05C3.28 4.14 4.29 5 5.5 5C6.71 5 7.72 4.14 7.95 3H21.5C21.775 3 22 2.775 22 2.5C22 2.225 21.775 2 21.5 2H7.95C7.72 0.86 6.71 0 5.5 0C4.29 0 3.28 0.86 3.05 2H0.5C0.225 2 0 2.225 0 2.5C0 2.775 0.225 3 0.5 3ZM5.5 1C6.33 1 7 1.67 7 2.5C7 3.33 6.33 4 5.5 4C4.67 4 4 3.33 4 2.5C4 1.67 4.67 1 5.5 1ZM21.5 9.5H19.95C19.72 8.36 18.71 7.5 17.5 7.5C16.29 7.5 15.28 8.36 15.05 9.5H0.5C0.225 9.5 0 9.725 0 10C0 10.275 0.225 10.5 0.5 10.5H15.05C15.28 11.64 16.29 12.5 17.5 12.5C18.71 12.5 19.72 11.64 19.95 10.5H21.5C21.775 10.5 22 10.275 22 10C22 9.725 21.775 9.5 21.5 9.5ZM17.5 11.5C16.67 11.5 16 10.83 16 10C16 9.17 16.67 8.5 17.5 8.5C18.33 8.5 19 9.17 19 10C19 10.83 18.33 11.5 17.5 11.5Z" fill="#121212"/>
</svg>
