<svg width="34" height="28" viewBox="0 0 34 28" fill="none" xmlns="http://www.w3.org/2000/svg">
<path fill-rule="evenodd" clip-rule="evenodd" d="M34 5C34 2.23858 31.7614 0 29 0H5C2.23858 0 0 2.23858 0 5V23C0 25.7614 2.23858 28 5 28L29 28C31.7614 28 34 25.7614 34 23V5ZM29 2C30.6569 2 32 3.34315 32 5L32 23C32 24.6569 30.6569 26 29 26L5 26C3.34314 26 2 24.6569 2 23L2 5C2 3.34315 3.34315 2 5 2L29 2ZM7.38142 18.8492L12.2275 12.0958C13.2727 10.6347 15.0665 10.6347 16.1117 12.0958L16.6187 12.8301C16.7564 13.0328 16.9157 13.2689 17.0965 13.5382L19.2912 16.8441L20.7339 14.7969C21.4805 13.7344 22.7618 13.7344 23.5083 14.7969L23.8705 15.331C23.9688 15.4784 24.0826 15.6501 24.2118 15.8459L26.7882 19.7974C27.3742 20.7529 26.6772 21.9815 25.5195 21.9999L18.4943 22L18.4745 21.9999L9.09209 22C7.46657 21.9984 6.46655 20.2875 7.30052 18.968L7.38142 18.8492ZM20.7034 18.9715L20.478 18.6318L22.1162 16.3074L22.2109 16.4471C22.3051 16.5884 22.4146 16.7536 22.5393 16.9427L24.5326 19.9999L21 20C21.0022 19.655 20.9095 19.3014 20.7034 18.9715ZM14.2457 13.0257C14.2918 13.0511 14.3776 13.1122 14.4775 13.249L14.9685 13.96C15.102 14.1567 15.2568 14.3861 15.4332 14.6487L18.9757 19.985C18.9708 19.9875 18.9644 19.9901 18.9562 19.9924C18.9461 19.9953 18.9295 19.9988 18.9048 19.9999L9.09412 20L9.09358 20C9.06704 19.9999 9.05035 19.9965 9.04118 19.994C9.03476 19.9923 9.02968 19.9903 9.02559 19.9884L13.8524 13.2618L13.8541 13.2595C13.9572 13.1153 14.0462 13.0517 14.0934 13.0257C14.1393 13.0004 14.1634 13 14.1696 13C14.1757 13 14.1999 13.0004 14.2457 13.0257ZM21 6C22.6569 6 24 7.34315 24 9C24 10.6569 22.6569 12 21 12C19.3431 12 18 10.6569 18 9C18 7.34315 19.3431 6 21 6ZM21 8C20.4477 8 20 8.44772 20 9C20 9.55229 20.4477 10 21 10C21.5523 10 22 9.55229 22 9C22 8.44772 21.5523 8 21 8Z" fill="#B6D99F"/>
</svg>
