<svg width="24" height="24" viewBox="0 0 24 24" fill="none" xmlns="http://www.w3.org/2000/svg">
<path d="M18.7515 6.85522C18.5856 7.02108 18.5856 7.29015 18.7515 7.45548L22.8712 11.5755H9.4011C9.1667 11.5755 8.97656 11.7653 8.97656 12C8.97656 12.2341 9.1667 12.4245 9.4011 12.4245H22.8712L18.7518 16.5445C18.5859 16.7099 18.5859 16.9789 18.7518 17.1448C18.9174 17.3107 19.1862 17.3107 19.352 17.1448L23.6504 12.8456C23.876 12.6203 24 12.32 24 12C24 11.6797 23.8757 11.3797 23.6501 11.1539L19.3518 6.85522C19.1859 6.68962 18.9171 6.68962 18.7515 6.85522Z" fill="black"/>
<path d="M2.9968 24H13.2861C14.9384 24 16.2829 22.6554 16.2829 21.0034V17.5696C16.2829 17.3346 16.093 17.1448 15.8584 17.1448C15.6237 17.1448 15.4338 17.3346 15.4338 17.5696V21.0034C15.4338 22.1877 14.4706 23.1512 13.2859 23.1512H2.9968C1.8128 23.1512 0.848799 22.188 0.848799 21.0034V2.9968C0.848799 1.81253 1.81253 0.848799 2.9968 0.848799H13.2861C14.4707 0.848799 15.4341 1.81226 15.4341 2.9968V6.43066C15.4341 6.66532 15.624 6.85519 15.8586 6.85519C16.0933 6.85519 16.2832 6.66532 16.2832 6.43066V2.9968C16.2832 1.34453 14.9386 0 13.2861 0H2.9968C1.34453 0 0 1.34453 0 2.9968V21.0032C0 22.6554 1.34453 24 2.9968 24Z" fill="black"/>
</svg>
