<svg width="16" height="16" viewBox="0 0 16 16" fill="none" xmlns="http://www.w3.org/2000/svg">
<rect width="16" height="16" fill="white"/>
<path fill-rule="evenodd" clip-rule="evenodd" d="M8.93458 15.5719C8.69529 15.848 8.37262 16 8.02631 16C7.67982 16 7.35733 15.848 7.11804 15.5714C6.90898 15.3308 2 9.62471 2 6.02631C2 2.70347 4.70347 0 8.02631 0C11.3492 0 14.0526 2.70347 14.0526 6.02649C14.0526 9.62489 9.14365 15.331 8.93458 15.5719ZM13.4868 6.0263C13.4868 3.01546 11.0375 0.56586 8.02649 0.56586C5.01547 0.56586 2.56605 3.01546 2.56587 6.0263C2.56587 9.41404 7.49583 15.1435 7.54578 15.2011C7.67592 15.3511 7.84658 15.4339 8.02649 15.4339C8.20623 15.4339 8.37707 15.3511 8.5072 15.2011C8.55698 15.1435 13.4868 9.41422 13.4868 6.0263Z" fill="black"/>
<path fill-rule="evenodd" clip-rule="evenodd" d="M8.02632 3.53442C9.40036 3.53442 10.5184 4.65229 10.5184 6.02634C10.5184 7.40038 9.40036 8.51825 8.02632 8.51825C6.65228 8.51825 5.53441 7.40038 5.53441 6.02634C5.53441 4.65229 6.65228 3.53442 8.02632 3.53442ZM8.0263 4.10029C6.96425 4.10029 6.10025 4.96429 6.10025 6.02633C6.10025 7.08838 6.96425 7.9522 8.0263 7.9522C9.08834 7.9522 9.95234 7.0882 9.95234 6.02633C9.95234 4.96447 9.08834 4.10029 8.0263 4.10029Z" fill="black"/>
</svg>
