<svg width="14" height="15" viewBox="0 0 14 15" fill="none" xmlns="http://www.w3.org/2000/svg">
<path d="M7.5298 6.39968C5.53751 6.39968 3.81072 6.06607 2.73 5.45288C2.35879 5.63378 1.1841 6.21878 0.873981 6.58764C0.810547 6.66282 0.735367 6.86016 0.730668 6.95884C0.728319 7.03637 0.815246 7.25251 0.815246 7.25251C3.44891 8.36612 4.91963 7.94088 6.39269 7.65191C7.95973 7.34414 9.37876 6.34095 9.37876 6.34095C9.39051 6.32685 9.40461 6.31511 9.41635 6.30101C8.77027 6.36679 8.13829 6.39968 7.5298 6.39968Z" fill="#555555"/>
<path d="M7.57208 0.444034H7.55094C7.52979 0.197349 7.23142 0 6.86257 0C6.48197 0 6.17185 0.209095 6.17185 0.467528C6.17185 0.472227 6.1742 0.474576 6.1742 0.479275C2.67596 0.84343 2.81927 3.29149 2.88975 4.6142C2.9015 4.84679 2.88505 5.07468 2.87096 5.22269C4.29704 6.03558 6.93305 6.33395 9.8087 5.99094C10.342 5.62443 11.068 5.27203 11.068 5.27203C11.068 5.27203 11.1126 3.91408 11.068 3.463C10.8283 1.10186 8.80786 0.556805 7.57208 0.444034Z" fill="#555555"/>
<path d="M13.8849 12.7266L9.08508 10.1094C10.6944 8.82897 10.7156 6.26579 10.7156 6.15771V5.38477C10.5722 5.4623 10.4148 5.54922 10.2504 5.6385V6.13657C10.2504 6.18356 10.2269 8.90885 8.47894 9.93318C8.38496 10.0037 8.34033 10.1423 8.40846 10.2597C8.439 10.3044 8.48599 10.3396 8.53533 10.3584L13.4878 13.079V13.8708C13.4878 14.0094 13.3939 14.1033 13.2787 14.1033H0.676624C0.559154 14.1033 0.467528 14.0094 0.467528 13.8708V13.079L5.47642 10.3537C5.59389 10.2832 5.63853 10.1446 5.5704 10.0272C5.5563 10.0037 5.53986 9.98487 5.52106 9.96842C5.50931 9.95667 5.49757 9.94728 5.48347 9.93788C5.48112 9.93553 5.47877 9.93553 5.47642 9.93318C4.70347 9.44216 4.27119 8.63162 4.03155 7.88686C3.84125 7.88921 3.66504 7.88686 3.51703 7.88216C3.74492 8.64806 4.16077 9.50794 4.91727 10.1141L0.117469 12.7266C0.0469877 12.7736 0 12.8441 0 12.9357V13.8684C0 14.2631 0.303071 14.5662 0.676624 14.5662H13.3022C13.6758 14.5662 13.9789 14.2631 14 13.8684V12.9357C14 12.8417 13.953 12.7736 13.8849 12.7266Z" fill="#555555"/>
</svg>
