<svg width="25" height="26" viewBox="0 0 25 26" fill="none" xmlns="http://www.w3.org/2000/svg">
<path d="M6.66589 6.72717C6.66589 3.52012 9.2697 0.9163 12.4768 0.9163C15.6838 0.9163 18.2876 3.52012 18.2876 6.72717C18.2876 9.93422 15.6838 12.538 12.4768 12.538C9.2697 12.538 6.66589 9.93422 6.66589 6.72717ZM19.2039 6.72717C19.2039 3.01615 16.1878 0 12.4768 0C8.76574 0 5.74195 3.01615 5.74195 6.72717C5.74195 10.4382 8.7581 13.4543 12.4691 13.4543C16.1801 13.4543 19.2039 10.4382 19.2039 6.72717Z" fill="#00CEA6"/>
<path d="M12.4769 16.9439C21.9072 16.9439 24.03 21.4643 24.03 23.0449C24.03 24.3659 22.9609 25.0761 21.953 25.0761H3.00088C1.99295 25.0761 0.923936 24.3659 0.923936 23.0449C0.923936 21.4643 3.0467 16.9439 12.4769 16.9439ZM0 23.0449C0 24.8928 1.52717 26 3.00088 26H21.953C23.4267 26 24.9539 24.8928 24.9539 23.0449C24.9539 21.0901 22.709 16.02 12.4769 16.02C2.24493 16.02 0 21.0901 0 23.0449Z" fill="#00CEA6"/>
</svg>
