<svg width="22" height="22" viewBox="0 0 22 22" fill="none" xmlns="http://www.w3.org/2000/svg">
<path d="M21.635 2.025V2.015L14.635 0.015V0.025C14.59 0.015 14.55 0 14.5 0C14.45 0 14.41 0.015 14.365 0.025V0.015L7.5 1.98L0.635 0.02V0.03C0.59 0.015 0.55 0 0.5 0C0.225 0 0 0.225 0 0.5V19.5C0 19.73 0.155 19.915 0.365 19.975V19.985L7.365 21.985V21.975C7.41 21.985 7.45 22 7.5 22C7.55 22 7.59 21.985 7.635 21.975V21.985L14.5 20.02L21.365 21.98V21.97C21.41 21.985 21.45 22 21.5 22C21.775 22 22 21.775 22 21.5V2.5C22 2.27 21.845 2.085 21.635 2.025ZM7 20.835L1 19.125V1.165L7 2.88V20.835ZM14 19.125L8 20.84V2.875L14 1.16V19.125ZM21 20.835L15 19.12V1.165L21 2.88V20.835Z" fill="#121212"/>
</svg>
