<svg width="16" height="16" viewBox="0 0 16 16" fill="none" xmlns="http://www.w3.org/2000/svg">
<g clip-path="url(#clip0_87_116)">
<path fill-rule="evenodd" clip-rule="evenodd" d="M16 2.85529C16 4.42951 14.7189 5.7104 13.1445 5.7104C12.1095 5.7104 11.2041 5.15502 10.7033 4.32818L5.45316 6.82204C5.61707 7.18151 5.71076 7.57973 5.71076 8C5.71076 8.42027 5.61689 8.81831 5.45316 9.17796L10.7031 11.6713C11.2039 10.8448 12.1095 10.2892 13.1445 10.2892C14.7191 10.2892 16 11.5701 16 13.1445C16 14.7189 14.7191 16 13.1445 16C11.5703 16 10.2894 14.7189 10.2894 13.1447C10.2894 12.8069 10.3515 12.4839 10.4597 12.1826L5.16729 9.6688C4.64818 10.3861 3.80658 10.8555 2.85529 10.8555C1.28107 10.8555 0 9.57404 0 8C0 6.42542 1.28107 5.14453 2.85529 5.14453C3.80658 5.14453 4.64818 5.61387 5.16729 6.3312L10.4597 3.81742C10.3513 3.51627 10.2892 3.19324 10.2892 2.85547C10.2892 1.28071 11.5703 0 13.1445 0C14.7191 0 16 1.28071 16 2.85529ZM15.434 2.85546C15.434 1.59288 14.4072 0.565857 13.1446 0.565857C11.8824 0.565857 10.8556 1.59288 10.8554 2.85546C10.8554 4.11786 11.8822 5.1447 13.1446 5.1447C14.4072 5.1447 15.434 4.11786 15.434 2.85546ZM2.85527 10.2894C1.59287 10.2894 0.566028 9.26257 0.566028 7.99999C0.566028 6.73741 1.59305 5.71039 2.85527 5.71039C4.11767 5.71039 5.14469 6.73741 5.14469 7.99999C5.14469 9.26257 4.11767 10.2894 2.85527 10.2894ZM15.434 13.1447C15.434 11.8823 14.4072 10.8555 13.1446 10.8555C11.8824 10.8555 10.8556 11.8823 10.8554 13.1447C10.8554 14.4073 11.8822 15.4341 13.1446 15.4341C14.4072 15.4341 15.434 14.4073 15.434 13.1447Z" fill="white"/>
</g>
<defs>
<clipPath id="clip0_87_116">
<rect width="16" height="16" fill="white"/>
</clipPath>
</defs>
</svg>
