<svg width="24" height="22" viewBox="0 0 24 22" fill="none" xmlns="http://www.w3.org/2000/svg">
<path d="M12.0006 0C5.37257 0 0 4.15322 0 9.27715C0 12.5898 2.24665 15.4962 5.62527 17.1378C5.4418 17.759 4.44368 21.1361 4.40444 21.4019C4.40444 21.4019 4.38021 21.6011 4.51175 21.6769C4.6433 21.7527 4.79792 21.6938 4.79792 21.6938C5.17525 21.6418 9.17583 18.8869 9.86817 18.4084C10.5605 18.5045 11.2725 18.5543 11.9994 18.5543C18.6274 18.5543 24 14.4011 24 9.27715C24.0012 4.15322 18.6286 0 12.0006 0Z" fill="#777777"/>
<path d="M5.3661 12.5164C4.98416 12.5164 4.67376 12.2257 4.67376 11.8682V7.83487H3.59371C3.21869 7.83487 2.91406 7.53619 2.91406 7.16963C2.91406 6.80307 3.21869 6.50439 3.59371 6.50439H7.1385C7.51351 6.50439 7.81814 6.80307 7.81814 7.16963C7.81814 7.53619 7.51351 7.83487 7.1385 7.83487H6.05844V11.867C6.05844 12.2245 5.74805 12.5164 5.3661 12.5164Z" fill="white"/>
<path d="M11.4366 12.5067C11.1481 12.5067 10.9265 12.3913 10.8608 12.2069L10.5181 11.3267H8.40643L8.06372 12.2069C7.99794 12.3913 7.77639 12.5067 7.48792 12.5067C7.3356 12.5067 7.18329 12.4739 7.04828 12.4128C6.85789 12.3269 6.67442 12.0893 6.88443 11.4489L8.53912 7.17465C8.65567 6.84995 9.00992 6.51507 9.46109 6.50488C9.91342 6.51507 10.2677 6.84995 10.3842 7.17578L12.0401 11.4478C12.2512 12.0893 12.0678 12.3269 11.8762 12.4128C11.7412 12.4739 11.5889 12.5067 11.4366 12.5067ZM10.1534 10.1241L9.46225 8.19853L8.77106 10.1252H10.1534V10.1241Z" fill="white"/>
<path d="M13.1547 12.4162C12.7889 12.4162 12.4912 12.1368 12.4912 11.794V7.1837C12.4912 6.80922 12.8085 6.50488 13.1986 6.50488C13.5886 6.50488 13.9059 6.80922 13.9059 7.1837V11.1717H15.3771C15.7429 11.1717 16.0406 11.4512 16.0406 11.794C16.0406 12.1368 15.7429 12.4162 15.3771 12.4162H13.1547Z" fill="white"/>
<path d="M17 12.5067C16.618 12.5067 16.3076 12.2024 16.3076 11.8279V7.1837C16.3076 6.80922 16.618 6.50488 17 6.50488C17.3819 6.50488 17.6923 6.80922 17.6923 7.1837V8.64315L19.6239 6.74926C19.7232 6.65196 19.8593 6.59765 20.0082 6.59765C20.1813 6.59765 20.3544 6.67119 20.4847 6.79791C20.6059 6.9167 20.6786 7.06943 20.6878 7.22782C20.6982 7.38734 20.644 7.53442 20.5355 7.64077L18.9581 9.18847L20.6624 11.4025C20.7744 11.5474 20.8217 11.7261 20.7951 11.906C20.7698 12.0859 20.674 12.2443 20.5263 12.354C20.4051 12.4434 20.2609 12.4909 20.1097 12.4909C19.8905 12.4909 19.6885 12.3925 19.557 12.2216L17.9335 10.1128L17.6935 10.3481V11.8291C17.6923 12.2024 17.3819 12.5067 17 12.5067Z" fill="white"/>
</svg>
