<svg width="24" height="24" viewBox="0 0 24 24" fill="none" xmlns="http://www.w3.org/2000/svg">
<g opacity="0.3">
<path d="M12 0C5.372 0 0 5.372 0 12C0 18.628 5.372 24 12 24C18.628 24 24 18.628 24 12C24 5.372 18.628 0 12 0ZM19.216 8.532L10.028 17.332C9.916 17.44 9.768 17.5 9.612 17.5C9.6 17.5 9.592 17.5 9.58 17.5C9.416 17.492 9.26 17.416 9.152 17.288L4.74 12.088C4.524 11.836 4.556 11.456 4.808 11.244C5.06 11.028 5.44 11.06 5.652 11.312L9.652 16.024L18.38 7.664C18.62 7.436 19 7.444 19.228 7.684C19.464 7.924 19.456 8.304 19.216 8.532Z" fill="#121212"/>
</g>
</svg>
