<svg width="24" height="24" viewBox="0 0 24 24" fill="none" xmlns="http://www.w3.org/2000/svg">
<g clip-path="url(#clip0_15_385)">
<rect width="24" height="24" fill="white"/>
<path d="M6.15316 6.20969C6.15316 3.24934 8.55668 0.845815 11.517 0.845815C14.4774 0.845815 16.8809 3.24934 16.8809 6.20969C16.8809 9.17004 14.4774 11.5736 11.517 11.5736C8.55668 11.5736 6.15316 9.17004 6.15316 6.20969ZM17.7267 6.20969C17.7267 2.78414 14.9426 0 11.517 0C8.09148 0 5.30029 2.78414 5.30029 6.20969C5.30029 9.63524 8.08443 12.4194 11.51 12.4194C14.9355 12.4194 17.7267 9.63524 17.7267 6.20969Z" fill="#333333"/>
<path d="M11.5172 15.6405C20.222 15.6405 22.1815 19.8132 22.1815 21.2722C22.1815 22.4916 21.1947 23.1471 20.2643 23.1471H2.77004C1.83965 23.1471 0.852863 22.4916 0.852863 21.2722C0.852863 19.8132 2.81233 15.6405 11.5172 15.6405ZM0 21.2722C0 22.978 1.40969 24 2.77004 24H20.2643C21.6247 24 23.0344 22.978 23.0344 21.2722C23.0344 19.4678 20.9621 14.7877 11.5172 14.7877C2.07225 14.7877 0 19.4678 0 21.2722Z" fill="#333333"/>
</g>
<defs>
<clipPath id="clip0_15_385">
<rect width="24" height="24" fill="white"/>
</clipPath>
</defs>
</svg>
