<svg width="48" height="48" viewBox="0 0 48 48" fill="none" xmlns="http://www.w3.org/2000/svg">
<path fill-rule="evenodd" clip-rule="evenodd" d="M41.5812 35.3941L26.6572 9.53492C25.4761 7.48836 22.5239 7.48836 21.3428 9.53492L6.41883 35.3941C5.2368 37.4422 6.71511 40 9.07601 40H38.924C41.2849 40 42.7632 37.4422 41.5812 35.3941ZM28.3894 8.53521C26.4386 5.15493 21.5614 5.15493 19.6106 8.53521L4.68661 34.3944C2.73576 37.7746 5.17431 42 9.07601 42H38.924C42.8257 42 45.2642 37.7747 43.3134 34.3944L28.3894 8.53521Z" fill="#E60000"/>
<path fill-rule="evenodd" clip-rule="evenodd" d="M24 16.3C23.3373 16.3 22.8 16.8372 22.8 17.5V28.1C22.8 28.7627 23.3373 29.3 24 29.3C24.6627 29.3 25.2 28.7627 25.2 28.1V17.5C25.2 16.8372 24.6627 16.3 24 16.3ZM24 33.7C24.8284 33.7 25.5 33.0284 25.5 32.2C25.5 31.3716 24.8284 30.7 24 30.7C23.1716 30.7 22.5 31.3716 22.5 32.2C22.5 33.0284 23.1716 33.7 24 33.7Z" fill="#E60000"/>
</svg>
