<svg width="138" height="205" viewBox="0 0 138 205" fill="none" xmlns="http://www.w3.org/2000/svg">
<path d="M0.39532 123.588C1.00621 120.56 2.55712 118.188 5.73308 117.504C11.054 116.285 16.6042 123.851 19.0356 127.743C22.3846 133.109 24.1857 139.417 24.3376 145.75C24.3738 148.228 24.4139 152.103 25.7701 154.239C28.5989 158.641 31.54 151.858 32.453 148.927C35.1165 140.154 31.8577 130.974 28.8788 122.711C24.007 109.302 4.83675 95.5517 20.4357 81.6545C22.4871 79.8125 25.0877 78.2604 27.8497 78.3879C37.3793 78.8067 41.3483 93.5009 42.6456 100.888C43.1073 103.56 42.9356 106.891 44.3805 109.295C47.0581 113.738 50.564 109.647 51.911 106.159C53.2307 102.63 53.3487 98.6792 53.0952 94.9757C52.548 87.0592 50.5573 79.3886 48.8553 71.7047C47.3505 64.9915 45.0708 57.5132 49.8244 51.4898C52.2149 48.4988 56.3137 46.7834 59.9938 48.2062C62.9118 49.3321 65.1053 51.9231 66.3843 54.7951C67.807 58.0184 68.4112 61.5778 68.5208 65.1091C68.5719 66.9814 67.2972 72.0595 69.0947 73.4248C69.863 74.0453 71.1004 73.7579 71.8439 73.0843C77.6197 67.8401 76.0177 58.2427 74.6229 51.5159C73.337 45.3123 71.8862 39.0398 71.8856 32.6659C71.8885 27.8683 73.1765 16.3474 80.0611 16.5906C83.4347 16.6983 85.5295 20.4869 85.8868 23.8533C86.2441 27.2196 86.5955 30.0835 87.7777 33.2583C87.1081 31.4402 91.7868 25.0794 92.7725 23.5595C94.992 20.1759 97.5958 17.0131 100.488 14.1948C106.395 8.47577 113.468 4.06611 121.292 1.59853C124.689 0.529251 127.933 0.0379646 130.917 2.43042C133.572 4.50581 135.317 8.08053 136.335 11.1862C137.174 13.7548 137.416 16.6323 136.538 19.2124C133.697 27.2689 122.472 29.4085 116.32 34.0396C112.067 37.2278 109.273 42.2144 109.125 47.5556C109.177 45.5252 119.607 42.9027 121.27 42.8086C124.774 42.6205 128.792 43.7891 130.861 46.8205C132.32 48.9769 132.609 51.7925 131.924 54.304C129.687 62.912 120.378 65.295 112.973 67.6323C104.922 70.1616 97.0951 73.524 89.7206 77.6579C90.8034 79.0222 92.9349 78.378 94.5442 77.6643C99.2141 75.5986 104.048 73.96 109.025 72.8515C112.469 72.0782 116.373 71.5052 119.178 74.2554C121.228 76.3162 121.922 79.6073 120.838 82.3248C119.401 85.9021 115.494 88.0858 112.713 90.5326C109.629 93.2405 106.409 95.3838 102.708 97.2511C94.9838 101.171 86.2583 104.03 80.2461 110.623C79.4197 111.53 78.6064 112.727 78.8994 113.932C79.3831 115.963 82.2689 116.008 84.3039 115.488C89.1371 114.207 93.9235 112.272 98.8984 112.238C103.908 112.21 109.399 114.75 110.826 119.55C112 123.475 110.053 127.809 107.024 130.599C104.002 133.356 100.02 134.844 96.1215 136.098C83.4217 140.232 69.4385 143.641 61.137 154.141C73.6165 150.214 87.7623 147.947 99.2454 154.095C102.279 155.71 105.31 158.578 104.836 161.991C104.453 164.778 101.81 166.716 99.2241 167.841C89.671 172.144 78.5148 170.753 68.3604 173.431C60.0553 175.622 52.6168 180.782 47.3189 187.555C43.8397 192.045 41.5912 202.835 35.4932 204.362C28.8658 206.032 25.4175 195.49 24.1147 190.787C21.9731 182.978 21.64 174.532 18.1989 167.142C14.3336 158.842 8.10273 151.462 4.07269 143.093C2.21129 139.388 -0.85459 129.96 0.39532 123.588Z" fill="#00E3B7"/>
</svg>
