<svg width="52" height="176" viewBox="0 0 52 176" fill="none" xmlns="http://www.w3.org/2000/svg">
<path d="M38.8594 53.9513C34.9725 42.2208 38.2913 29.3831 37.0954 17.084C36.7665 13.6277 36.0339 10.1115 34.1502 7.19387C31.1453 2.52561 25.2402 -0.0479214 19.7686 0.819897C14.2969 1.68772 9.49805 5.86222 7.76388 11.1439C6.56789 14.7798 6.74729 18.7149 7.01639 22.5453C8.01802 36.7745 9.94654 51.2731 6.62769 65.1282C4.62442 73.4922 0.737476 81.4522 0.0946352 90.0107C-0.383758 96.4445 1.00657 102.893 3.02479 109.028C7.79378 123.511 18.9613 136.604 35.705 130.828C43.9424 127.985 46.0054 120.519 46.9024 112.664C47.8891 104.06 50.7296 96.1303 51.8358 87.7514C53.4504 75.587 42.7165 65.5921 38.8594 53.9513Z" fill="#04A989"/>
<path d="M1.97822 105.572L28.6935 126.699C29.74 142.784 30.6669 159.347 31.3545 175.731C32.5505 175.805 33.7316 175.895 34.9126 176C34.21 159.526 33.2831 142.843 32.2366 126.669L48.1432 105.333C48.5468 103.417 48.9953 101.517 49.4438 99.617L32.0123 123.033C31.3844 113.592 30.7267 104.345 30.0539 95.4276L48.7561 73.2982C48.3823 72.5351 47.9937 71.772 47.59 71.0089L29.7998 92.061C28.8131 79.1634 27.7965 67.014 26.8397 56.0316L36.9458 41.8323C36.9009 40.4857 36.9009 39.139 36.9308 37.7775L26.5258 52.3957C25.554 41.4283 24.6421 31.7476 23.8797 23.8026L35.8694 10.8452C35.6003 10.0222 35.2564 9.21426 34.8677 8.43622L23.5657 20.6455C22.3548 8.31652 21.5624 0.940065 21.5325 0.625854L18.0044 1.01488C18.0343 1.32909 18.8565 8.85517 20.0824 21.3937L7.15084 13.7628C7.01629 14.6157 6.9266 15.4835 6.88175 16.3513L20.3665 24.2964C21.1289 32.2115 22.0408 41.8622 22.9976 52.7847L8.45147 44.2113C8.48137 45.139 8.48137 46.0517 8.49632 46.9793L23.2518 55.6874C24.2235 66.7147 25.2401 78.924 26.2268 91.8964L3.90674 74.2558C3.63764 75.0488 3.3835 75.8567 3.12935 76.6497L26.466 95.1133C27.1537 104.285 27.8413 113.801 28.4842 123.527L1.05133 101.831C1.32043 103.088 1.63437 104.345 1.97822 105.572Z" fill="#03987B"/>
</svg>
