<svg width="126" height="205" viewBox="0 0 126 205" fill="none" xmlns="http://www.w3.org/2000/svg">
<path d="M0.629176 123.265C1.24007 120.237 2.79098 117.864 5.96694 117.18C11.2878 115.962 16.8381 123.527 19.2694 127.42C22.6185 132.786 24.4196 139.094 24.5715 145.426C24.6076 147.904 24.6478 151.78 26.0039 153.915C28.8328 158.318 31.7739 151.535 32.6869 148.603C35.3503 139.831 32.0915 130.651 29.1126 122.387C24.2409 108.979 5.0706 95.2284 20.6695 81.3312C22.721 79.4892 25.3215 77.9371 28.0835 78.0646C37.6132 78.4834 41.5821 93.1775 42.8794 100.565C43.3412 103.236 43.1694 106.568 44.6144 108.972C47.2919 113.415 50.7978 109.324 52.1449 105.836C53.4645 102.307 53.5826 98.3559 53.3291 94.6524C52.7819 86.7359 50.7912 79.0653 49.0891 71.3813C47.5843 64.6682 45.3047 57.1899 50.0582 51.1665C52.4487 48.1755 56.5475 46.4601 60.2276 47.8829C63.1456 49.0088 65.3392 51.5998 66.6182 54.4718C68.0408 57.6951 68.6451 61.2545 68.7546 64.7858C68.8058 66.6581 67.531 71.7362 69.3285 73.1015C70.0968 73.722 71.3342 73.4346 72.0777 72.761C77.8535 67.5167 76.2516 57.9194 74.8568 51.1926C73.5708 44.989 72.1201 38.7165 72.1194 32.3426C72.1224 27.545 73.4104 16.0241 80.2949 16.2673C83.6685 16.375 85.7634 20.1636 86.1207 23.53C86.4779 26.8963 86.8294 29.7602 88.0116 32.935C87.3419 31.1169 92.0206 24.7561 93.0063 23.2362C95.2258 19.8526 97.8297 16.6898 100.721 13.8715C106.629 8.15246 113.702 3.74281 121.526 1.27522C124.923 0.205948 128.167 -0.285339 131.151 2.10711C133.806 4.1825 135.551 7.75723 136.568 10.8629C137.408 13.4315 137.65 16.309 136.772 18.8891C133.931 26.9456 122.706 29.0851 116.553 33.7163C112.3 36.9045 109.507 41.8911 109.359 47.2323C109.411 45.2018 119.84 42.5794 121.503 42.4853C125.008 42.2972 129.026 43.4658 131.094 46.4972C132.554 48.6536 132.843 51.4692 132.158 53.9807C129.921 62.5887 120.612 64.9717 113.207 67.309C105.155 69.8383 97.3289 73.2006 89.9544 77.3346C91.0373 78.6989 93.1687 78.0547 94.7781 77.341C99.4479 75.2753 104.282 73.6366 109.259 72.5282C112.703 71.7549 116.607 71.1819 119.412 73.9321C121.462 75.9929 122.156 79.284 121.072 82.0015C119.635 85.5788 115.728 87.7625 112.947 90.2093C109.863 92.9172 106.643 95.0605 102.942 96.9278C95.2177 100.848 86.4921 103.707 80.4799 110.3C79.6535 111.207 78.8402 112.404 79.1332 113.609C79.6169 115.64 82.5028 115.685 84.5378 115.165C89.3709 113.884 94.1573 111.949 99.1323 111.914C104.142 111.887 109.633 114.427 111.06 119.227C112.233 123.152 110.287 127.485 107.258 130.276C104.236 133.032 100.254 134.521 96.3554 135.775C83.6556 139.909 69.6723 143.318 61.3708 153.818C73.8503 149.89 87.9962 147.624 99.4793 153.772C102.513 155.387 105.544 158.254 105.07 161.668C104.686 164.455 102.044 166.392 99.4579 167.518C89.9048 171.821 78.7487 170.43 68.5942 173.107C60.2892 175.299 52.8507 180.458 47.5528 187.231C44.0735 191.722 41.8251 202.512 35.7271 204.038C29.0997 205.709 25.6513 195.166 24.3485 190.463C22.207 182.655 21.8739 174.209 18.4327 166.818C14.5675 158.519 8.33658 151.139 4.30654 142.77C2.44515 139.064 -0.620734 129.637 0.629176 123.265Z" fill="#00E3B7"/>
</svg>
