<svg width="64" height="53" viewBox="0 0 64 53" fill="none" xmlns="http://www.w3.org/2000/svg">
<path d="M63.0732 3.12478C67.7184 14.4827 17.3321 49.7241 13.128 51.4435C10.771 52.4076 7.8784 52.9657 7.00174 50.8222C6.70908 50.1066 7.12321 48.7288 8.08351 46.8797L8.08287 46.8812L1.39237 41.6456C0.486606 40.9366 0.425152 39.5942 1.26374 38.7917L1.82583 38.2537C2.84359 37.2777 4.23916 36.7908 5.64091 36.9213L14.2261 37.7216C16.3212 34.9839 18.756 32.0182 21.3704 29.0105L3.97448 25.8278C2.59787 25.5756 1.9644 23.9925 2.78611 22.86L3.62844 21.7003C5.03021 19.7695 7.17074 18.4934 9.54236 18.1733L34.9173 14.7604C40.9232 9.03688 46.6071 4.48193 50.4337 2.9169C51.4562 2.49873 52.4907 2.10693 53.5069 1.77273L47.8413 7.6889L48.6158 10.0545L57.3246 0.834944C60.1334 0.388698 62.1535 0.876151 63.0732 3.12478ZM43.1911 34.1428L55.6659 40.2285C56.4261 40.6001 57.3471 40.4275 57.929 39.8076L58.8594 38.8135C60.5571 37.0009 60.8992 34.3263 59.7084 32.1786L54.943 23.5847C54.6481 23.0529 53.9279 22.9342 53.4674 23.3417L42.987 32.582C42.4778 33.032 42.5836 33.8465 43.1911 34.1428Z" fill="#05BD99"/>
</svg>
